<?xml version="1.0" encoding="UTF-8"?>
<svg id="Actix" xmlns="http://www.w3.org/2000/svg" viewBox="0 0 5661.67 5705.52">
  <defs>
    <style>
      .cls-1 {
        fill: #151515;
        stroke-width: 0px;
      }
    </style>
  </defs>
  <path class="cls-1" d="M5660.79,2923.59c.58-23.54.88-47.15.88-70.83s-.3-47.29-.88-70.83l-193.53-71.15c-4.17-78.72-11.79-156.53-22.71-233.28l176.09-107.63c-8.01-46.59-17.15-92.8-27.41-138.58l-203.72-32.03c-19.43-76.3-42.17-151.27-68.08-224.75l151.63-139.84c-16.96-43.99-34.99-87.46-54.05-130.36l-206.17,8.34c-33.93-70.76-70.92-139.77-110.8-206.87l121.38-166.67c-25.27-39.87-51.52-79.05-78.7-117.54l-200.56,48.39c-46.92-62.55-96.55-122.95-148.72-181.02l86.55-187.17c-32.55-34.22-65.96-67.62-100.17-100.17l-187.17,86.55c-58.07-52.17-118.47-101.8-181.02-148.72l48.39-200.56c-38.48-27.18-77.67-53.43-117.54-78.7l-166.67,121.38c-67.1-39.88-136.11-76.87-206.87-110.8l8.34-206.17c-42.9-19.07-86.37-37.09-130.36-54.05l-139.84,151.63c-73.48-25.91-148.45-48.65-224.75-68.08l-32.03-203.72c-45.79-10.26-91.99-19.4-138.58-27.41l-107.63,176.09c-76.75-10.92-154.55-18.54-233.28-22.71l-71.15-193.53c-23.54-.58-47.15-.88-70.83-.88s-47.29.3-70.83.87l-71.15,193.53c-78.72,4.17-156.53,11.79-233.28,22.71l-107.63-176.09c-46.59,8.01-92.8,17.15-138.58,27.41l-32.03,203.72c-76.3,19.43-151.27,42.17-224.75,68.08l-139.84-151.63c-43.99,16.96-87.46,34.99-130.36,54.05l8.34,206.17c-70.76,33.93-139.77,70.92-206.87,110.8l-166.67-121.38c-39.87,25.27-79.05,51.52-117.54,78.7l48.39,200.56c-62.55,46.92-122.95,96.55-181.02,148.72l-187.17-86.55c-34.22,32.55-67.62,65.96-100.17,100.17l86.55,187.17c-52.17,58.07-101.8,118.47-148.72,181.02l-200.56-48.39c-27.18,38.48-53.43,77.67-78.7,117.54l121.38,166.67c-39.88,67.1-76.87,136.11-110.8,206.87l-206.17-8.34c-19.07,42.9-37.09,86.37-54.05,130.36l151.63,139.84c-25.91,73.48-48.65,148.45-68.08,224.75l-203.72,32.03c-10.26,45.79-19.4,91.99-27.41,138.58l176.09,107.63c-10.92,76.75-18.54,154.55-22.71,233.28L.88,2781.93c-.58,23.54-.88,47.15-.88,70.83s.3,47.29.87,70.83l193.53,71.15c4.17,78.72,11.79,156.53,22.71,233.28l-176.09,107.63c8.01,46.59,17.15,92.8,27.41,138.58l203.72,32.03c19.43,76.3,42.17,151.27,68.08,224.75l-151.63,139.84c16.96,43.99,34.99,87.46,54.05,130.36l206.17-8.34c33.93,70.76,70.92,139.77,110.8,206.87l-121.38,166.67c25.27,39.87,51.52,79.05,78.7,117.54l200.56-48.39c46.92,62.55,96.55,122.95,148.72,181.02l-86.55,187.17c32.55,34.22,65.96,67.62,100.17,100.17l187.17-86.55c58.07,52.17,118.47,101.8,181.02,148.72l-48.39,200.56c38.48,27.18,77.67,53.43,117.54,78.7l166.67-121.38c67.1,39.88,136.11,76.87,206.87,110.8l-8.34,206.17c42.9,19.06,86.37,37.09,130.36,54.05l139.84-151.63c73.48,25.91,148.45,48.65,224.75,68.08l32.03,203.72c45.79,10.26,91.99,19.4,138.58,27.41l107.63-176.09c76.75,10.92,154.55,18.54,233.28,22.71l71.15,193.53c23.54.58,47.15.88,70.83.88s47.29-.3,70.83-.88l71.15-193.53c78.72-4.17,156.53-11.79,233.28-22.71l107.63,176.09c46.59-8.01,92.8-17.15,138.58-27.41l32.03-203.72c76.3-19.43,151.27-42.17,224.75-68.08l139.84,151.63c43.99-16.96,87.46-34.99,130.36-54.05l-8.34-206.17c70.76-33.93,139.77-70.92,206.87-110.8l166.67,121.38c39.86-25.27,79.05-51.52,117.53-78.7l-48.39-200.56c62.55-46.92,122.95-96.55,181.02-148.72l187.17,86.55c34.22-32.55,67.62-65.96,100.17-100.17l-86.55-187.17c52.17-58.07,101.8-118.47,148.72-181.02l200.56,48.39c27.18-38.48,53.42-77.67,78.7-117.54l-121.38-166.67c39.88-67.1,76.87-136.11,110.8-206.87l206.17,8.34c19.06-42.9,37.09-86.37,54.05-130.36l-151.63-139.84c25.91-73.48,48.65-148.45,68.08-224.75l203.72-32.03c10.26-45.79,19.4-91.99,27.41-138.58l-176.09-107.63c10.92-76.75,18.54-154.55,22.71-233.28l193.53-71.15ZM4179.4,1406.49c110.54,0,200.15,89.61,200.15,200.15s-89.61,200.15-200.15,200.15-200.15-89.61-200.15-200.15,89.61-200.15,200.15-200.15ZM951.31,2147.32c95.73-55.27,218.14-22.47,273.41,73.26,55.27,95.73,22.47,218.14-73.26,273.41-95.73,55.27-218.14,22.47-273.41-73.26-55.27-95.73-22.47-218.14,73.26-273.41ZM2706.61,4866.09c-87.32,123.81-342.53,209-655.8,89.76-313.27-119.23-844.81-479.53-1031.54-768.12-186.73-288.59-536.2-999.83-279.56-1344.7,256.63-344.87,1153.54,329.08,1153.54,329.08,0,0,620.74,547.39,739.04,940.27s164.93,625.24,74.32,753.71ZM3345.14,4765.32c-55.27,95.73-177.68,128.53-273.41,73.26-95.73-55.27-128.53-177.68-73.26-273.41,55.27-95.73,177.68-128.53,273.41-73.26,95.73,55.27,128.53,177.68,73.26,273.41ZM2830.83,3407.84c-306.56,0-555.08-248.52-555.08-555.08s248.52-555.08,555.08-555.08,555.08,248.52,555.08,555.08-248.52,555.08-555.08,555.08ZM2983.76,1959.97s-784.42,263.89-1183.82,169.89c-399.4-93.99-623.94-169.79-689.89-312.49-63.56-137.53-9.73-401.14,250.16-612.82,259.89-211.68,837.69-491.86,1180.98-509.28,343.29-17.42,1133.98,35.55,1304.33,430.24,170.35,394.69-861.77,834.45-861.77,834.45ZM4842.12,3709.54c-156.56,306.01-597.78,964.28-1024.77,914.46-426.99-49.81-291.77-1163.54-291.77-1163.54,0,0,163.68-811.27,444.78-1110.16,281.1-298.89,459.01-455.45,615.57-441.22,150.88,13.72,352.26,192.14,405.64,523.06,53.37,330.91,7.12,971.39-149.45,1277.4Z"/>
</svg>