<?xml version="1.0" encoding="UTF-8"?>
<svg id="Compose" xmlns="http://www.w3.org/2000/svg" viewBox="0 0 5582.01 5705.52">
  <defs>
    <style>
      .cls-1 {
        fill: #547dbf;
      }

      .cls-2 {
        fill: none;
        stroke: #547dbf;
        stroke-miterlimit: 10;
        stroke-width: 150px;
      }
    </style>
  </defs>
  <path class="cls-1" d="m5147.32,1308.28L2956.19,43.23c-99.83-57.64-222.83-57.64-322.66,0L442.4,1308.28c-99.83,57.64-161.33,164.16-161.33,279.43v2530.1c0,115.27,61.5,221.79,161.33,279.43l2191.13,1265.05c99.83,57.64,222.83,57.64,322.66,0l2191.13-1265.05c99.83-57.64,161.33-164.16,161.33-279.43V1587.71c0-115.27-61.5-221.79-161.33-279.43Zm53.79,2747.44c0,115.27-61.5,221.79-161.33,279.43l-2083.59,1202.96c-99.83,57.64-222.83,57.64-322.66,0l-2083.59-1202.96c-99.83-57.64-161.33-164.16-161.33-279.43V1649.8c0-115.27,61.5-221.79,161.33-279.43L2633.53,167.41c99.83-57.64,222.83-57.64,322.66,0l2083.59,1202.96c99.83,57.64,161.33,164.16,161.33,279.43v2405.92Z"/>
  <path class="cls-1" d="m4164.78,1875.55l-1208.59-697.78c-99.83-57.64-222.83-57.64-322.66,0l-1208.59,697.78c-99.83,57.64-161.33,164.16-161.33,279.43v1395.56c0,115.27,61.5,221.79,161.33,279.43l1208.59,697.78c99.83,57.64,222.83,57.64,322.66,0l1208.59-697.78c99.83-57.64,161.33-164.16,161.33-279.43v-1395.56c0-115.27-61.5-221.79-161.33-279.43Zm-376.17,1364.67c0,115.27-61.5,221.79-161.33,279.43l-671.09,387.45c-99.83,57.64-222.83,57.64-322.66,0l-671.09-387.45c-99.83-57.64-161.33-164.16-161.33-279.43v-774.91c0-115.27,61.5-221.79,161.33-279.43l671.09-387.45c99.83-57.64,222.83-57.64,322.66,0l671.09,387.45c99.83,57.64,161.33,164.16,161.33,279.43v774.91Z"/>
  <line class="cls-2" x1="5230.54" y1="1464.47" x2="4002.53" y2="2155.76"/>
  <line class="cls-2" x1="388.61" y1="1438.49" x2="1616.62" y2="2129.78"/>
  <line class="cls-2" x1="2794.86" y1="4329.85" x2="2794.86" y2="5581.34"/>
</svg>