<?xml version="1.0" encoding="UTF-8"?>
<svg id="Spring" xmlns="http://www.w3.org/2000/svg" viewBox="0 0 5582.01 5705.52">
  <defs>
    <style>
      .cls-1 {
        fill: #6db344;
      }
    </style>
  </defs>
  <path class="cls-1" d="m5267.15,2484.69s-14.59-160.44-54.2-345.21c-2.67-12.44-5.83-26.57-12.06-54.33-37.55-167.49-70.38-317.46-84.71-367.06-106.94-370.27-160.57-555.37-175.06-609.88-28.69-107.95-70.27-212.56-93.18-321.88-16.28-77.68-24.07-136.63-45.18-138.35-28.91-2.36-47.96,104.05-110.12,223.06-45.23,86.61-99.07,152.48-145.02,199.8-451.4-446.05-1071.81-721.43-1756.55-721.43-1380.27,0-2499.21,1118.93-2499.21,2499.21s1214.55,2512.26,2499.21,2499.2c1296.05-13.17,2173.03-1148.67,2408.03-2065.05,81.29-317,83.09-597.36,68.03-798.06Zm-3962.27,2250.41c-120.85,0-218.82-97.97-218.82-218.82s97.97-218.82,218.82-218.82,218.82,97.97,218.82,218.82-97.97,218.82-218.82,218.82Zm3799.06-1578.35c-18.77,93.53-62.02,272.99-163.76,480-68.05,138.46-144.13,293.26-304.94,446.12-163.79,155.69-328.82,227-406.59,259.76-145.23,61.19-257.67,80.17-451.76,112.94-90.06,15.2-258.61,40.3-496.94,50.82-293.9,12.97-262.17-15.29-688.94-11.29-184.46,1.73-369.16-8.91-553.41,0-60.77,2.94-161.36,8.85-163.76-5.65-2.36-14.18,90.45-40.25,146.82-56.47,188.21-54.16,372.44-121.31,559.06-180.71,200.21-63.72,336.34-107.05,508.24-192,47.91-23.68,267.84-134.23,519.53-338.82,222.02-180.47,360.85-346.41,457.41-463.06,183.57-221.77,326.03-397.24,412.24-666.35,53.47-166.92,73.75-333.81,56.47-338.82-18.3-5.31-63.51,175.42-180.71,384-121.66,216.53-257.39,350.01-395.29,485.65-92.2,90.68-292.44,276.22-592.94,457.41-288.42,173.9-251.92,91.6-835.76,361.41-480.66,123.44-831.76,208.36-886.59,220.24-78.2,16.94-152.47,16.94-152.47,16.94h0c-25-9.1-65.4-26.67-118.59-67.77-106.46-82.25-170.44-186.3-180.71-203.29-77.76-128.77-98.02-246.68-112.94-338.82-8.69-53.66-21.25-154.94-11.29-282.35,14.31-183.06,67.75-326.09,107.29-412.24,21.24-46.26,99.85-209.84,265.41-372.71,187.9-184.85,381.92-264.62,496.94-310.59,66.19-26.45,217.17-81.82,417.88-107.29,138.65-17.6,161.97-3.28,367.06-11.29,106.03-4.15,304.39-12.61,536.47-56.47,138.13-26.1,298.77-56.46,496.94-141.18,221.84-94.83,370.66-206.46,463.06-276.71,0,0,224.18-170.42,389.65-378.35,13.93-17.51,26.4-33.18,37.64-47.63h0c35.71-46.05,49.9-86.34,64.96-120.44,23.56-53.34,48.91-110.56,72-108.71,21.28,1.71,31.77,51.56,49.41,120,15.33,59.46,35.85,117.49,53.61,176.28,9.5,31.47,15.44,55.27,16.98,60.9,7.46,27.34,17.8,66.05,45.43,175.82,15.83,62.9,12.84,51.77,18.1,72.18,19.96,77.35,31.54,115.21,48.46,157.25,0,0,0,0,0,0,28.72,122.99,92.33,419.3,112.94,807.53,14,263.78,21.41,424.59-22.59,643.76Z"/>
</svg>