<?xml version="1.0" encoding="UTF-8"?>
<svg id="Tailwind_CSS" data-name="Tailwind CSS" xmlns="http://www.w3.org/2000/svg" viewBox="0 0 5773.16 5705.52">
  <defs>
    <style>
      .cls-1 {
        fill: #27aae1;
        stroke-width: 0px;
      }
    </style>
  </defs>
  <path class="cls-1" d="M1441.84,2115.74c.28-6.66,1.59-14.79,3.11-21.55,24.01-114.58,55.22-209.92,101.96-310.72,254.02-537.61,742.5-725.69,786.13-742.52,174.77-63.02,387.78-74.22,552.81-68.63,155.3,3.15,305.22,3.46,516.38,64.51,107.28,31.55,217.9,80.91,313.2,136.84,136.32,75.28,308.21,221.95,387.69,307.48,88.85,91.74,192.19,212.24,344.43,332,19.97,16.06,39.59,31.18,60.31,46.47,45.77,34.48,108.99,74.94,151.19,92.88,151.45,68.73,316.38,68.83,409.93,56.94,30.54-3.2,61.47-8.57,93.28-15.75,372.14-85.53,583.44-402.17,610.1-444.25.45-.5.76-.56.79.25,0,.26-.01.6-.06,1.05-.14,1.2-.54,3.15-1.25,5.92-22.46,74.98-55.49,174.87-80.71,246.58-63.97,187.2-200.08,421.65-369.65,569.82-230.74,203.8-463.96,258.25-663.39,301.64-360.54,72.56-637.42,13.86-760.23-18.63-89.58-26.35-157.26-50.59-268.79-100.52-160.44-71.76-371.81-199.33-515.99-363.07-39.29-45.81-152.36-163.6-223.71-225.46-99.44-88.43-181.5-166.79-295.2-221.06-261.57-127.74-586.43-123.79-870.33,96.32-99.81,73.11-202.49,178.32-264.79,263.83-1.25,1.82-2.29,3.44-3.53,5.39-1.92,3.04-4.49,7.09-6.92,9.27-4.04,3.71-6.72,1.9-6.77-4.91v-.13Z"/>
  <path class="cls-1" d="M0,3854.09c.28-6.66,1.59-14.79,3.11-21.55,24.01-114.58,55.22-209.92,101.96-310.72,254.02-537.61,742.5-725.69,786.13-742.52,174.77-63.02,387.78-74.22,552.81-68.63,155.3,3.15,305.22,3.46,516.38,64.51,107.28,31.55,217.9,80.91,313.2,136.84,136.32,75.28,308.21,221.95,387.69,307.48,88.85,91.74,192.19,212.24,344.43,332,19.97,16.06,39.59,31.18,60.31,46.47,45.77,34.48,108.99,74.94,151.19,92.88,151.45,68.73,316.38,68.83,409.93,56.94,30.54-3.2,61.47-8.57,93.28-15.75,372.14-85.53,583.44-402.17,610.1-444.25.45-.5.76-.56.79.25,0,.26-.01.6-.06,1.05-.14,1.2-.54,3.15-1.25,5.92-22.46,74.98-55.49,174.87-80.71,246.58-63.97,187.2-200.08,421.65-369.65,569.82-230.74,203.8-463.96,258.25-663.39,301.64-360.54,72.56-637.42,13.86-760.23-18.63-89.58-26.35-157.26-50.59-268.79-100.52-160.44-71.76-371.81-199.33-515.99-363.07-39.29-45.81-152.36-163.6-223.71-225.46-99.44-88.43-181.5-166.79-295.2-221.06-261.57-127.74-586.43-123.79-870.33,96.32-99.81,73.11-202.49,178.32-264.79,263.83-1.25,1.82-2.29,3.44-3.53,5.39-1.92,3.04-4.49,7.09-6.92,9.27-4.04,3.71-6.72,1.9-6.77-4.91v-.13Z"/>
</svg>