<?xml version="1.0" encoding="UTF-8"?>
<svg id="Tokio" xmlns="http://www.w3.org/2000/svg" viewBox="0 0 5661.67 5705.52">
  <defs>
    <style>
      .cls-1, .cls-2 {
        fill: #010101;
        stroke-width: 0px;
      }

      .cls-2 {
        fill-rule: evenodd;
      }
    </style>
  </defs>
  <g id="Page-1">
    <g id="_01" data-name="01">
      <g id="Group-Copy-2">
        <g id="Group">
          <g id="Mark-Copy">
            <polygon id="Line-Copy-3" class="cls-2" points="1412.04 3539.37 1332.46 3585.32 1426.78 3748.69 1506.36 3702.75 2082.39 3370.18 2161.97 3324.23 2067.64 3160.86 1988.06 3206.8 1412.04 3539.37"/>
            <polygon id="Line" class="cls-2" points="4157.52 3702.75 4237.1 3748.69 4331.43 3585.32 4251.85 3539.37 3675.82 3206.8 3596.24 3160.86 3501.92 3324.23 3581.49 3370.18 4157.52 3702.75"/>
            <path id="Oval-Copy-2" class="cls-2" d="M3775.18,2841.67c0-520.94-422.3-943.24-943.24-943.24s-943.24,422.3-943.24,943.24,422.3,943.24,943.24,943.24,943.24-422.3,943.24-943.24ZM2088.33,2841.67c0-410.69,332.93-743.61,743.61-743.61s743.61,332.93,743.61,743.61-332.93,743.61-743.61,743.61-743.61-332.93-743.61-743.61Z"/>
            <circle id="Oval-Copy-6" class="cls-1" cx="1134.1" cy="3832.07" r="141.49"/>
            <circle id="Oval-Copy-12" class="cls-1" cx="2831.94" cy="4822.48" r="141.49"/>
            <circle id="Oval-Copy-13" class="cls-1" cx="2831.94" cy="860.86" r="141.49"/>
            <circle id="Oval-Copy-14" class="cls-1" cx="4529.78" cy="1851.26" r="141.49"/>
            <circle id="Oval-Copy-16" class="cls-1" cx="1134.1" cy="1851.26" r="141.49"/>
            <circle id="Oval-Copy-15" class="cls-1" cx="4529.78" cy="3832.07" r="141.49"/>
            <circle id="Oval-Copy-6-2" data-name="Oval-Copy-6" class="cls-1" cx="2831.94" cy="2841.67" r="141.49"/>
            <polygon id="Line-2" data-name="Line" class="cls-2" points="96.54 2747.34 2.21 2747.34 2.21 2935.99 96.54 2935.99 1888.7 2935.99 1983.02 2935.99 1983.02 2747.34 1888.7 2747.34 96.54 2747.34"/>
            <polygon id="Line-3" data-name="Line" class="cls-2" points="3775.18 2747.34 3680.86 2747.34 3680.86 2935.99 3775.18 2935.99 5567.35 2935.99 5661.67 2935.99 5661.67 2747.34 5567.35 2747.34 3775.18 2747.34"/>
            <polygon id="Line-Copy-4" class="cls-2" points="3437.03 3614.59 3389.55 3533.08 3226.54 3628.04 3274.02 3709.55 4176.15 5258.1 4223.63 5339.6 4386.63 5244.64 4339.15 5163.14 3437.03 3614.59"/>
            <polygon id="Line-Copy-4-2" data-name="Line-Copy-4" class="cls-2" points="1538.82 395.84 1491.34 314.34 1328.33 409.3 1375.81 490.8 2277.94 2039.35 2325.42 2120.85 2488.43 2025.89 2440.95 1944.39 1538.82 395.84"/>
            <polygon id="Line-Copy-7" class="cls-2" points="4280.27 490.8 4327.75 409.3 4164.74 314.34 4117.26 395.84 3215.14 1944.39 3167.66 2025.89 3330.66 2120.85 3378.14 2039.35 4280.27 490.8"/>
            <polygon id="Line-Copy-7-2" data-name="Line-Copy-7" class="cls-2" points="2399.3 3718.74 2446.78 3637.24 2283.77 3542.27 2236.29 3623.78 1334.17 5172.33 1286.69 5253.83 1449.69 5348.79 1497.17 5267.29 2399.3 3718.74"/>
            <polygon id="Line-4" data-name="Line" class="cls-2" points="2737.62 4398.81 2737.62 4492.34 2926.27 4492.34 2926.27 4398.81 2926.27 3736.96 2926.27 3643.42 2737.62 3643.42 2737.62 3736.96 2737.62 4398.81"/>
            <polygon id="Line-5" data-name="Line" class="cls-2" points="2737.62 1948.02 2737.62 2039.91 2926.27 2039.91 2926.27 1948.02 2926.27 1282.88 2926.27 1190.99 2737.62 1190.99 2737.62 1282.88 2737.62 1948.02"/>
            <polygon id="Line-Copy-2" class="cls-2" points="1988.06 2476.53 2067.64 2522.48 2161.97 2359.1 2082.39 2313.16 1506.36 1980.59 1426.78 1934.64 1332.46 2098.02 1412.04 2143.96 1988.06 2476.53"/>
            <polygon id="Line-Copy" class="cls-2" points="3581.49 2313.16 3501.92 2359.1 3596.24 2522.48 3675.82 2476.53 4251.85 2143.96 4331.42 2098.02 4237.1 1934.64 4157.52 1980.59 3581.49 2313.16"/>
          </g>
        </g>
      </g>
    </g>
  </g>
</svg>