<?xml version="1.0" encoding="UTF-8"?>
<svg id="Unity" xmlns="http://www.w3.org/2000/svg" viewBox="0 0 5582.01 5705.52">
  <defs>
    <style>
      .cls-1 {
        fill: #231f20;
      }
    </style>
  </defs>
  <polygon class="cls-1" points="2776.1 5702.51 2776.1 2287.15 4313.6 1405.9 5308.26 1405.9 5308.26 3999.65 4407.35 3487.15 4407.35 2318.4 3201.1 3055.9 3201.1 4430.9 4188.6 3868.4 5051.1 4355.9 2776.1 5702.51"/>
  <polygon class="cls-1" points="2813.62 5702.51 2813.62 2287.15 1276.12 1405.9 281.46 1405.9 281.46 3999.65 1182.37 3487.15 1182.37 2318.4 2388.62 3055.9 2388.62 4430.9 1401.12 3868.4 538.62 4355.9 2813.62 5702.51"/>
  <polygon class="cls-1" points="281.46 1405.88 2593.77 3.01 2593.77 1031.96 1357.06 1743.49 281.46 1405.88"/>
  <path class="cls-1" d="m3005.19,3.01l2303.07,1402.86c-390.09,96.86-780.17,193.72-1170.26,290.58-377.61-221.5-755.21-443-1132.82-664.5V3.01Z"/>
</svg>