<?xml version="1.0" encoding="UTF-8"?>
<svg id="Mariadb" xmlns="http://www.w3.org/2000/svg" viewBox="0 0 6096.47 6096.47">
  <defs>
    <style>
      .cls-1 {
        fill: #231f20;
        stroke-width: 0px;
      }
    </style>
  </defs>
  <path class="cls-1" d="M5816.77,1173.6c-15.39-13.1-35.09-20.03-55.29-19.47-55.29,0-126.54,37.38-164.7,58.4l-15.38,7.79c-64.32,31.17-134.36,48.8-205.78,51.79-73.2,2.34-136.28,6.62-218.43,14.99-486.71,50.23-703.78,423.24-912.87,783.99-113.69,196.24-231.28,399.1-392.48,556.21-33.46,32.29-68.97,62.4-106.3,90.14-166.84,124.4-376.32,212.2-540.05,274.89-157.11,59.96-328.24,113.89-493.91,166.06-151.46,47.7-294.75,92.67-426.36,141.73-59.38,22-109.8,38.94-154.38,53.73-119.73,38.94-206.36,68.72-332.52,155.75-49.25,33.68-98.7,70.09-132.38,97.34-100.29,79.97-189,173.47-263.6,277.81-64.23,96.36-138.43,185.69-221.35,266.52-26.48,26.09-73.98,38.94-144.65,38.94-83.13,0-183.59-17.13-290.27-35.24-106.69-18.11-223.11-38.94-320.45-38.94-79.24,0-139.59,12.85-184.95,38.94,0,0-75.93,44.39-108.24,101.82l31.54,14.21c48.94,26.57,94.28,59.28,134.92,97.34,42.08,39.22,89.15,72.74,139.98,99.68,16.37,6.23,31.23,15.85,43.61,28.23-13.43,19.47-32.9,44.58-53.34,71.45-112.33,146.99-177.75,239.85-140.17,290.47,17.99,9.41,38.12,13.98,58.4,13.24,245.11,0,376.52-63.66,543.17-144.26,48.09-23.36,97.34-47.5,155.75-72.03,97.34-42.25,202.08-109.61,313.05-180.86,146.99-94.42,299.03-192.15,446.21-239.46,121.28-36.98,247.6-54.72,374.38-52.56,155.75,0,319.67,20.83,477.75,41.08,117.98,15.19,239.85,30.76,359.58,38.94,46.53,2.73,89.55,4.09,131.61,4.09,55.99.15,111.95-2.77,167.62-8.76l13.24-4.67c84.1-51.59,123.43-162.37,161.39-269.44,24.53-68.92,45.17-130.83,77.87-170.15,1.95-1.97,4.11-3.73,6.42-5.26,3.16-1.76,7.11-1.11,9.54,1.56.34,1.01.34,2.1,0,3.11-19.47,418.76-188.26,684.51-358.61,920.85l-115.64,121.29s159.25,0,249.97-35.04c330.96-98.9,580.93-316.94,762.77-664.65,44.82-89.24,84.85-180.81,119.92-274.31,3.11-7.79,31.93-22.19,29.01,18.11,0,11.88-1.56,25.11-2.53,38.94h0c0,8.18-1.17,16.55-1.56,24.92-4.87,58.4-19.47,181.83-19.47,181.83l102.21-54.71c246.47-155.75,436.48-469.96,580.54-958.81,60.16-203.64,103.96-405.91,142.7-584.05,46.33-214.15,86.24-397.74,132-468.99,71.84-111.75,181.44-187.29,287.55-260.68,14.6-9.93,29.01-19.47,43.22-29.98,133.55-93.64,266.13-201.69,295.14-403.19v-4.48c22.19-150.3,4.09-187.67-15.38-206.17Z"/>
</svg>