<?xml version="1.0" encoding="UTF-8"?>
<svg id="Layer_20" data-name="Layer 20" xmlns="http://www.w3.org/2000/svg" viewBox="0 0 6096.47 6096.47">
  <defs>
    <style>
      .cls-1 {
        fill: #346892;
      }

      .cls-1, .cls-2 {
        stroke-width: 0px;
      }

      .cls-2 {
        fill: #fff;
      }
    </style>
  </defs>
  <path class="cls-1" d="M2953.13,359.89c63.01-8.28,180.92-23.02,323.84-5.31,148.34,18.38,241.96,61.61,244.2,63.71.13.12,1.37,1.43,2.65,1.16,1.49-.31,2.16-2.56,2.21-2.71,24.85-68.54,313.66-83.39,313.66-83.39,171.31-8.81,133.38-25.61,286.67-31.85,129.63-5.28,353.48-14.39,621.13,69.01,108,33.66,402.06,129.15,642.36,392.85,58.58,64.28,111.37,123.19,153.95,217.66,64.18,142.4,69.67,286.84,26.54,573.35-51.66,343.21-129.48,600.64-153.95,679.53-108.72,350.46-229.89,611.2-291.98,737.92-145.68,297.31-327.27,579.62-339.76,589.28-.66.51-6.24,4.42-5.75,8.85.55,4.99,8.5,7.86,11.06,8.85,19.63,7.59,36.94,26.25,47.78,32.74,80.18,48.01,276.06,29.2,276.06,29.2,120.23-11.55,212.82-20.44,294.64-42.47,4.76-1.28,44.33-11.99,95.56-7.96,31.4,2.47,59.68,5.1,82.29,26.54,28.72,27.24,29.25,66.77,29.2,74.32-.37,50.3-37.45,87.61-69.01,116.79-90.04,83.23-135.05,124.84-230.93,172.54-151.55,75.39-283.84,95.01-363.65,106.18,0,0-124.22,17.38-307.91,5.31-88.19-5.8-137.26-23.87-140.68-26.54-.33-.26-3.27-2.74-5.2-1.82-1.16.55-1.57,2.15-1.83,3.15-.72,2.8-.08,5.19-.06,5.31,16.43,66.04-35.39,325.16-35.39,325.16-29.91,149.54-9.01,145.75-61.05,522.92-23.17,167.92-39.9,259.89-82.29,371.62-45.96,121.14-89.12,178.65-122.1,215.01-63.98,70.54-130.03,106.04-185.81,135.37-124.45,65.46-233.92,83.31-313.22,95.56-117.9,18.21-186.67,28.83-276.06,7.96-151.82-35.44-245.81-134.34-278.71-169.88-29.51-31.88-119.18-135.66-177.84-422.05-82.12-400.88-41.75-858.09-42.47-958.24-.18-25.15-3.35-83.53-2.65-90.25.05-.44.35-3.01-.17-3.15-.61-.17-2.02,3.13-2.32,3.82-3.18,7.18-15.95,23.63-20.41,29.36-52.57,67.67-176.85,122.6-176.85,122.6-46.87,20.72-118.79,51.91-220.98,67.69-112.56,17.38-198.98,6.37-260.79-1.99-143.75-19.43-219.52-59.71-252.83-79.63-56.35-33.7-79.08-61.73-87.6-93.57-12.64-47.3,9.72-89.51,11.94-93.57,11.28-20.57,39.11-57.1,234.91-105.51,99.13-24.51,110.36-19.69,165.24-41.81,61.13-24.64,104.1-41.96,141.35-83.61,20.06-22.44,76.56-94.54,89.59-109.49,4.16-4.78,7.53-10.28,12.17-14.6,4.03-3.76,7.86-6.47,8.85-11.5.65-3.32-.29-5.84-.88-7.96-3.84-13.69,3.44-22.13.44-27.87-5.74-11.01-43.36-1.77-43.36-1.77-115.45,28.36-300.07-82.92-308.35-92.9-.41-.49-3.26-4.2-5.31-3.54-1.88.6-2.14,4.55-2.21,5.31-1.66,16.56-34.06,42.91-34.06,42.91-32.14,26.14-275.54,290.76-397.72,439.75-63.42,77.34-86.68,114.36-148.65,153.95-26.26,16.78-101.81,65.04-191.12,63.71-88.08-1.32-172.1-50.63-260.13-148.65-270.58-301.28-473.26-944.99-483.1-976.82-246.33-796.6-287.96-1019.6-313.22-1226.33-17.45-142.83-38.01-367.27,10.62-642.36,49.66-280.94,136.52-416.92,159.26-451.25,46.05-69.51,144.35-197.96,313.22-297.29,147.89-86.99,279.53-110.25,382.23-127.41,137.47-22.96,272.14-11.77,541.5,10.62,0,0,369.22,30.69,530.88,111.48,63.68,31.83,95.52,47.74,95.56,47.78.51.49,3.21,3.32,7.08,3.54,2.43.14,4.36-.81,5.31-1.33,50.34-27.46,62.38-40.7,62.38-40.7,40.66-44.72,217.58-105.28,231.82-110.16,100.05-34.25,179.63-45.13,240.22-53.09Z"/>
  <path class="cls-2" d="M2588.78,3599.17c-31.27-5.48-61.86-13.72-91.6-24.84-6.38-2.39-13.78-4.37-19.68-7.76,17.07,9.77-.97-.57-6.08-2.9-14.24-6.5-28.29-13.39-42.25-20.45-27.08-13.67-53.86-27.93-81.12-41.23-13.56-6.61-27.22-13.02-41.05-19.06-11.31-4.94-22.71-9.68-34.1-14.44,16.61,6.95,7.47,3.43,4.25,1.35-6.17-4-11.21-10.94-.59.81-8.85-9.8-20.52-18.51-30.36-27.41-14.44-13.06-29.83-25.03-46.59-34.94-11.54-6.82-26.44-14.24-35.89-23.93,12.97,13.28-1.87-1.78-5.96-5.3-6.9-5.94-13.62-12.09-20.15-18.42-10.53-10.2-20.59-20.88-30.2-31.94-4.83-5.55-9.46-11.26-14.16-16.92-9.79-11.79,1.14,2.09,1.52,2.14-1.54-.2-8.9-11.97-9.86-13.29-18.08-25-34.5-51.26-49.28-78.34-3.87-7.08-7.56-14.26-11.05-21.53-1.75-3.64-3.39-7.32-5.1-10.97-1.51-3.23-6.87-12.11.4,1.23-8.43-15.48-13.16-34.54-18.55-51.27-10.88-33.76-20.01-68.11-27.87-102.7-7.94-34.89-14.45-70.1-19.78-105.48-.73-4.84-4.5-28.7-1.7-11.35-1.34-8.3-2.11-16.75-3.07-25.1-2.17-18.86-4.02-37.76-5.59-56.68-11.93-143.82-7.48-288.38.75-432.27,4.31-75.37,9.64-150.67,14.08-226.03,4.09-69.3,1.52-138.84,6.69-208.07.6-8.06,1.31-16.11,2.17-24.14.27-2.54,1.61-15.49.45-5s.37-2.37.77-4.91c2.62-16.71,6.06-33.28,10.44-49.62,9.05-33.72,16.86-67.33,21.87-101.92,10.71-73.99,13.98-148.14,15.31-222.81,1.24-70.01,1.76-140.21,9.58-209.88.44-3.89.62-8.35,1.44-12.23-3.36,15.81-.77,5.3-.21,1.63,1.23-8.12,2.47-16.23,3.9-24.32,3.22-18.24,7.06-36.38,11.7-54.32,8.32-32.18,17.53-67.77,32.81-97.44-7.87,15.28,2.34-5.34,4.34-9.79,3.29-7.35,6.67-14.66,10.12-21.93,7.79-16.39,15.97-32.6,24.44-48.65,16.03-30.41,33.08-60.26,50.46-89.91,34.16-58.27,68.55-116.52,105.03-173.38,18.11-28.23,36.86-56.05,56.63-83.14,4.64-6.36,9.37-12.65,14.1-18.94,2.03-2.71,7.97-11.59-.92,1.16,2.21-3.18,4.91-6.24,7.32-9.24,11.04-13.8,22.43-27.33,34.19-40.53,21.71-24.36,44.75-47.54,69.2-69.16,10.96-9.7,22.25-19,33.67-28.15,3.16-2.53,9.57-9.41-2.18,1.66,2.53-2.38,6.04-4.55,8.78-6.56,7.35-5.42,14.79-10.72,22.31-15.9,25.59-17.62,52.16-33.81,79.48-48.6,12.88-6.97,25.93-13.63,39.13-19.99,6.61-3.18,13.25-6.28,19.93-9.31,3.34-1.52,6.69-3.01,10.05-4.49,2.12-.93,16.8-6.97,6.22-2.72-11.4,4.58,5.48-2.16,6.33-2.5,3.41-1.36,6.83-2.71,10.26-4.04,6.86-2.66,13.74-5.23,20.66-7.74,14.7-5.33,29.54-10.32,44.47-14.97,29.9-9.33,60.22-17.32,90.82-24.02,15.3-3.35,30.67-6.38,46.09-9.09,7.25-1.28,14.52-2.48,21.79-3.61,3.64-.57,7.28-1.09,10.92-1.65,14.5-2.22-10.48,1.23-.81.05,34.65-4.21,69.35-7.36,104.23-8.91,72.29-3.22,144.78-.52,216.76,6.77,16.98,1.72,33.91,3.77,50.84,5.9,11.53,1.45-12.39-1.86-.91-.09,4.22.65,8.45,1.21,12.68,1.83,10.56,1.56,21.11,3.22,31.65,4.95,34.79,5.74,69.43,12.39,103.9,19.82,69.93,15.08,139.44,32.88,207.73,54.21,33.59,10.5,66.89,21.98,99.63,34.88,7.69,3.03,15.41,6.05,23,9.33-15.24-6.58,6.25,2.87,10.53,4.8,16.9,7.63,33.6,15.69,50.04,24.25,59.91,31.18,116.4,68.55,170.27,109.21,3.15,2.38,6.44,4.71,9.5,7.22-11.91-9.79-3.59-2.79-1.01-.76,6.26,4.93,12.52,9.85,18.73,14.84,14,11.23,27.85,22.64,41.58,34.19,25.97,21.84,51.52,44.18,76.89,66.73,49.62,44.12,99.14,88.44,147.55,133.9,47.7,44.79,94.06,91.17,136.33,141.17,4.95,5.85,9.83,11.75,14.66,17.7,3.01,3.71,17.36,21.26,6.04,7.36,10.83,13.3,20.62,27.67,30.28,41.83,18.81,27.59,35.88,56.3,51.24,85.96,32.09,61.95,57.22,127.13,85.41,190.87,27.28,61.69,61.36,119.9,89.41,181.18,1.65,3.61,3.2,7.27,4.87,10.87,4.62,9.96-4.48-11.75-.64-1.48,3.12,8.34,6.48,16.57,9.37,25,5.53,16.09,10.12,32.5,13.5,49.18.83,4.11,1.6,8.22,2.29,12.36.41,2.43,2.04,15.7.93,5.56-1.11-10.17.2,3.19.43,5.62.49,5.21.89,10.43,1.21,15.65,1.09,17.82,1.24,35.69.82,53.53-1.72,73.35-10.52,146.71-17.67,219.67-14.4,146.99-29.25,294.66-22.67,442.54,6.57,147.74,35.26,293.46,42.4,441.15,1.62,33.45,2.19,66.98.94,100.46-.52,14.03-1.34,28.05-2.49,42.05-.58,7.01-1.23,14.02-1.97,21.01-.37,3.5-.76,7-1.17,10.49-.41,3.49-.85,6.99-1.3,10.47l1.24-9.48c-3.82,13.16-4.4,28.05-7.09,41.55-3.07,15.44-6.61,30.79-10.68,46-3.59,13.44-7.6,26.78-12.05,39.97-2.22,6.56-4.53,13.09-6.97,19.58-1.22,3.23-2.46,6.46-3.73,9.67-.95,2.41-1.92,4.81-2.91,7.2-2.14,5.2-1.3,3.19,2.51-6.02-.97,11.38-12.6,27.05-17.97,37.1-6.46,12.09-13.38,23.93-20.82,35.44-3.72,5.75-7.55,11.44-11.52,17.02-1.99,2.8-4.05,5.53-6.05,8.32-9.98,13.95,7.9-9.31.68-.93-9.62,11.15-19.04,22.29-29.35,32.83-27.46,28.07-30.07,78.46,0,106.07,29.67,27.23,76.75,29.96,106.07,0,91.98-94.02,144.39-219.82,163.76-348.71,21.84-145.34,7.79-289.04-9.76-434.08-9.14-75.52-18.38-151.13-21.75-227.17-3.34-75.43-1.11-150.99,3.78-226.3,4.98-76.59,12.7-152.96,20.17-229.34,7.31-74.78,16.76-150.27,16.6-225.5-.09-41.09-4.04-82.81-13.24-122.89-8.54-37.21-23.29-72.78-39.01-107.46-29.08-64.16-64.79-124.95-93.13-189.52-28.82-65.68-54.78-132.77-88.65-196.11-33.98-63.55-76.98-121.98-123.68-176.72-88.08-103.25-192.09-192.96-293.59-282.61-106.58-94.13-218.67-185.99-346.49-249.91-133.65-66.84-279.94-107.74-425.69-138.33-150.07-31.49-304.74-49.8-458.18-41.07-274.46,15.61-550.4,117.14-735.36,327.26-93.89,106.66-165.92,230.5-237.42,352.64-38.03,64.96-73.07,131.07-101.8,200.71-28.9,70.07-45.46,142.01-54.7,217.11-8.82,71.63-9.66,143.85-10.91,215.91-.63,36.05-1.35,72.11-3.28,108.13-.93,17.41-2.13,34.81-3.75,52.17-.76,8.15-1.6,16.3-2.55,24.43-.47,4.04-.88,8.15-1.5,12.18,2.84-18.37-.16.23-.82,4.35-5.64,35.43-15.52,69.39-23.67,104.22-9.04,38.66-13.63,78.64-16.2,118.22-4.65,71.77-2.7,143.78-7.04,215.6-18.31,302.4-46.15,610.22,28.26,907.82,34.61,138.43,97.84,271.46,204.08,369.66,27.34,25.27,57.39,46.91,89.09,66.26,1.77,1.08,6.22,4.65,7.76,4.92-1.6-.28-13.57-11.7-3.74-2.78,5.02,4.56,10.12,9.02,15.08,13.65,14.53,13.53,29.32,26.87,45.81,38.04,5.18,3.51,10.46,6.35,16.12,9,5.97,2.52,11.94,5.04,17.92,7.56,6.68,2.76,7.34,3.01,1.97.75-9.29-3.88,2.2,1,4.45,1.98,15.44,6.81,30.69,14.05,45.82,21.54,27.84,13.78,55.24,28.43,83.05,42.27,59.26,29.48,120.65,54.91,186.11,66.38,38.5,6.75,82.68-10.32,92.26-52.38,8.31-36.49-11.06-85.02-52.38-92.26h0Z"/>
  <path class="cls-2" d="M4838,3558.94c-68.98-121.95-137.96-243.89-206.94-365.84-34.23-60.52-67.9-121.39-103.02-181.4-33.47-57.2-71.66-111.16-107.37-166.93-40.68-63.54-72.41-131.35-101.72-200.73,2.52,5.97,5.04,11.94,7.56,17.92-58.31-138.34-117.71-277.65-153.95-423.74-10.15-40.92-18.31-82.32-24.06-124.09.89,6.65,1.79,13.29,2.68,19.94-8.25-61.62-12.46-124.85-4.42-186.71-.89,6.65-1.79,13.29-2.68,19.94,3.99-28.86,10.9-57.08,22.07-84.03l-7.56,17.92c9.08-21.17,20.64-40.89,34.65-59.17-3.91,5.06-7.82,10.12-11.73,15.18,16.06-20.52,34.68-38.65,55.27-54.61-5.06,3.91-10.12,7.82-15.18,11.73,25.65-19.54,53.73-35.39,83.41-47.95l-17.92,7.56c38.09-15.8,78.05-25.54,118.87-31.08l-19.94,2.68c108.6-14.04,219.81-.23,327.66,14.24-6.65-.89-13.29-1.79-19.94-2.68,17.58,2.38,35.14,4.91,52.69,7.58,20.68,3.15,39.02,3.43,57.79-7.56,15.56-9.1,30.39-26.94,34.47-44.82,4.37-19.2,3.43-40.75-7.56-57.79-9.86-15.3-25.99-31.6-44.82-34.47-96.17-14.64-193.9-28.11-291.31-29.96-50.46-.96-100.69,2.83-150.44,11.41-43.54,7.52-84.41,21.38-124.67,39.46-73.65,33.08-141.08,90.05-179.79,161.56-45.39,83.86-52.11,181.46-44.95,274.86,13.96,182.04,74.91,353.62,143.74,521.22,35.89,87.41,70.16,176.53,115.28,259.7,42.5,78.32,97.38,149.15,142.48,225.95,47.17,80.32,92.11,162,137.97,243.07s93.23,164.82,139.85,247.23c11.34,20.05,22.68,40.09,34.02,60.14,19.33,34.17,68.9,48.64,102.61,26.91,34.54-22.27,47.59-66.06,26.91-102.61h0Z"/>
  <path class="cls-2" d="M4731.05,3682.9c36.72,21.71,75.81,39.42,115.76,54.29,34.51,12.85,70.19,22.6,106.45,29.05,42.87,7.63,86.36,12.17,129.91,12.09,38.65-.07,77.21-3.27,115.58-7.74,49.91-5.82,99.59-13.49,149.39-20.2-6.65.89-13.29,1.79-19.94,2.68,67.64-9.07,136.08-16.11,204.36-10.75,16.28,1.28,32.71,2.8,48.9,4.96l-19.94-2.68c7.42,1.06,14.72,2.55,21.7,5.34-5.97-2.52-11.94-5.04-17.92-7.56,3.47,1.49,6.69,3.27,9.73,5.51-5.06-3.91-10.12-7.82-15.18-11.73,2.2,1.75,4.14,3.65,5.93,5.82-3.91-5.06-7.82-10.12-11.73-15.18,1.99,2.61,3.58,5.33,4.94,8.32-2.52-5.97-5.04-11.94-7.56-17.92,1.65,4,2.73,8.11,3.4,12.38-.89-6.65-1.79-13.29-2.68-19.94.94,7.1.74,14.15-.2,21.24.89-6.65,1.79-13.29,2.68-19.94-1.29,8.64-3.62,17.02-6.9,25.11,2.52-5.97,5.04-11.94,7.56-17.92-3.5,8.28-8.06,15.9-13.49,23.06,3.91-5.06,7.82-10.12,11.73-15.18-13.97,17.86-32.12,31.8-49.95,45.58,5.06-3.91,10.12-7.82,15.18-11.73-61.42,47.31-127.65,88.23-197.29,122.28-19.6,9.58-39.47,18.6-59.56,27.11,5.97-2.52,11.94-5.04,17.92-7.56-77.57,32.7-158.48,57.32-241.11,73.36-23.41,4.54-46.95,8.39-70.58,11.57,6.65-.89,13.29-1.79,19.94-2.68-81.69,10.88-164.45,13.59-246.65,7.56-23.18-1.7-46.31-4.11-69.35-7.18,6.65.89,13.29,1.79,19.94,2.68-43.26-5.84-86.17-14.1-128.49-24.84-19.1-4.85-40.66-2.46-57.79,7.56-15.56,9.1-30.39,26.94-34.47,44.82-4.37,19.2-3.43,40.75,7.56,57.79,10.48,16.25,25.64,29.6,44.82,34.47,57.2,14.52,115.43,24.13,174.06,30.67,52.49,5.85,105.37,8.1,158.16,6.87,59.01-1.38,117.71-7.52,176.03-16.51,52.24-8.05,103.97-19.5,154.73-34.25,55.95-16.26,110.27-36.95,163.66-60.23,48.41-21.11,95.42-45.43,140.55-72.85,22.57-13.71,44.66-28.21,66.22-43.45,26.49-18.73,52.81-38.18,77.44-59.3,28.81-24.7,51.37-56.47,61.86-93.22,12.76-44.7,7.3-97.83-27.29-131.71-5.77-5.65-12.81-10.73-19.43-15.26-2.33-1.59-4.75-2.92-7.31-4.12-10.73-5.03-21.7-9.92-33.38-12.23-17.5-3.45-35.28-4.59-52.96-6.55-30.43-3.38-60.89-4.73-91.5-3.96-67.52,1.72-134.58,11.88-201.35,21.34-15.05,2.13-30.1,4.26-45.16,6.29,6.65-.89,13.29-1.79,19.94-2.68-79.06,10.6-158.87,17.83-238.36,7.38l19.94,2.68c-54.18-7.3-107.19-21.78-157.58-42.99,5.97,2.52,11.94,5.04,17.92,7.56-25.15-10.68-49.55-22.98-73.07-36.89-16.71-9.88-39.11-12.7-57.79-7.56-17.4,4.79-36.25,18.24-44.82,34.47-9.2,17.41-13.81,38.49-7.56,57.79,6.04,18.66,17.28,34.66,34.47,44.82h0Z"/>
  <path class="cls-2" d="M4782.69,3529.57c-132.91-2.69-248.97,88.35-311.02,200.64-70.64,127.83-66.45,274.27-71.95,415.71-1.4,35.99-4.03,71.91-7.64,107.75-1.79,17.78-3.8,35.53-5.98,53.26-1.04,8.41-2.14,16.8-3.22,25.21-1.51,11.86,2.62-18.88.04-.34-.78,5.6-1.55,11.19-2.34,16.79-10.29,72.7-22.4,145.12-32.65,217.83-10.99,78.03-20.63,156.23-30.19,234.45-4.38,35.8-8.75,71.6-13.29,107.38-2.39,18.83-4.84,37.65-7.32,56.46-.51,3.85-1.79,14.73.41-3.01-.58,4.71-1.28,9.4-1.92,14.1-1.42,10.34-2.87,20.67-4.34,31-16.74,117.21-36.28,235.61-79.28,346.5-1.06,2.72-2.13,5.44-3.21,8.16-.78,1.95-6.63,15.46-1.21,3.18s-3.48,7.83-4.94,11.02c-5.97,13.15-12.35,26.11-19.16,38.85-13.53,25.29-28.98,49.26-45.88,72.42-2.79,3.82-8.95,9.82,3.9-5.02-1.86,2.14-3.56,4.47-5.36,6.66-4.52,5.52-9.17,10.94-13.93,16.26-9.58,10.68-19.65,20.93-30.19,30.68-5.31,4.92-10.75,9.71-16.31,14.36-2.37,1.99-4.78,3.93-7.18,5.89-12.85,10.51,10.46-7.43,1.57-1.26-14.1,9.78-28.04,19.47-42.89,28.11-12.68,7.38-25.67,14.21-38.9,20.56-3.34,1.6-20.19,11.52-22.31,10.18.24.15,17.54-7.14,4.32-1.84-4.57,1.83-9.14,3.68-13.73,5.45-29.99,11.59-60.69,21.29-91.63,29.98-63.81,17.92-128.75,33.16-194.28,43.26-4.27.66-8.55,1.27-12.83,1.9-13.9,2.06,3.37.02,4.53-.6-5.59,3-19.36,2.29-25.7,2.92-17.07,1.7-34.19,2.93-51.34,3.58-33.22,1.25-66.01-.43-99.08-3.48-11.22-1.03,19.34,3.15,2.41.36-3.32-.55-6.65-1.03-9.97-1.58-8.29-1.4-16.55-3-24.76-4.81-16.46-3.63-32.75-8.1-48.73-13.49-8.06-2.72-15.96-5.78-23.9-8.82-4.74-1.81-12.57-6.87,5.19,2.21-2.55-1.3-5.3-2.36-7.9-3.57-13.69-6.36-27.04-13.44-40.01-21.18-11.68-6.97-23.04-14.47-34.06-22.45-2.31-1.67-4.55-3.51-6.91-5.1,16.76,11.33,7.49,5.85,3.31,2.5-6.15-4.93-12.18-10.01-18.09-15.23-20.51-18.14-39.56-37.91-57.11-58.92-3.62-4.34-18.39-24.47-4.55-5.22-4.24-5.9-8.71-11.64-12.92-17.57-8.43-11.9-16.45-24.1-24.06-36.55-14.5-23.73-27.52-48.37-39.09-73.66-2.37-5.19-11.62-28.79-2.96-6.22-2.61-6.81-5.49-13.53-8.09-20.35-5.31-13.94-10.14-28.04-14.67-42.24-10.49-32.92-19.86-66.21-28.17-99.75-8.76-35.37-16.34-71.04-22.78-106.91-2.9-16.15-5.56-32.35-8.01-48.58-.68-4.51-1.34-9.02-1.98-13.53-.68-4.81-3.36-17.76.08.97-1.64-8.93-2.31-18.13-3.35-27.15-16.79-145.06-14.33-292.12-13.68-437.92.66-149.01,3.38-298.01,3.63-447.02.13-74.41-.35-148.83-2.03-223.23-1.43-63.69-3.57-130.14-23.36-191.22-21-64.81-60.54-123.99-120.81-158.16-49.53-28.09-109.43-39.65-165.88-33.01-65.03,7.65-122.88,30.94-174.07,71.99-50.54,40.53-77.15,98.98-107.76,154.3-7.31,13.2-15.25,25.88-23.69,38.38-7.5,11.1,1.94-2.92,3.36-4.01-3.14,2.4-5.9,7.26-8.52,10.26-4.85,5.56-9.92,10.92-15.18,16.09-5.25,5.16-10.7,10.11-16.31,14.87-2.22,1.88-4.72,3.63-6.82,5.62,13.97-13.19,7.47-5.69,2.87-2.34-11.99,8.73-24.54,16.67-37.47,23.93-12.44,6.98-25.25,13.05-38.18,19.06-11.41,5.3,4.16-1.94,5.45-2.23-4.16.92-8.62,3.49-12.62,5.03-7.05,2.71-14.16,5.28-21.31,7.73-29.02,9.94-58.71,17.67-88.63,24.35-68.23,15.23-137.64,25.33-204.94,44.59-77.04,22.04-164.69,55.22-176.84,145.63-11.54,85.88,61.37,149.41,132.34,180.77,71.56,31.62,144.5,51.51,222.35,59.83,68.28,7.29,138.53,7.42,207.1,5.18,74.14-2.42,148.88-10.27,221.23-26.96,123.02-28.38,237.29-94.67,328.22-181.74,41.79-40.01,80.17-86.92,105.57-139.15,17.13-35.23,10.76-82.71-26.91-102.61-33.66-17.79-84.3-10.76-102.61,26.91-5.53,11.37-11.62,22.42-18.34,33.14-3.28,5.24-6.7,10.39-10.22,15.47-1.59,2.29-3.21,4.56-4.84,6.81-1.65,2.27-3.32,4.53-5.02,6.77l6.54-8.45c-9.61,9.54-17.55,21.31-26.81,31.28-10.12,10.9-20.69,21.38-31.61,31.47-10.01,9.25-20.32,18.16-30.9,26.76-2.76,2.24-6.69,4.42-8.92,7.14,8.72-10.6,9.54-7.22,4.3-3.35-6.76,4.98-13.5,9.98-20.38,14.79-23.48,16.41-47.94,31.42-73.27,44.81-12.23,6.47-24.66,12.56-37.29,18.21-2.6,1.16-5.25,2.24-7.83,3.44,18.66-8.63,10.6-4.38,6.21-2.68-7.72,2.99-15.4,6.02-23.22,8.75-28.79,10.05-58.6,17.26-88.49,23.15-15.68,3.09-31.44,5.66-47.24,8-13.74,2.03,2.37.02,4.07-.54-3.95,1.3-9.11,1.12-13.27,1.59-9.75,1.11-19.52,2.08-29.29,2.93-33.89,2.94-67.9,4.39-101.9,4.79-33.95.4-67.91-.25-101.83-1.53-15.86-.6-31.73-1.23-47.56-2.21-8.5-.53-16.99-1.24-25.46-2.14-3.35-.36-6.87-1.05-10.21-1.18,20.65.8,4.46.56-.5-.23-32.52-5.21-64.62-13.05-95.91-23.29-13.46-4.41-31.98-8.17-43.74-16.14,2.81,1.19,5.62,2.37,8.43,3.56-3.14-1.36-6.27-2.74-9.39-4.15-3.11-1.41-6.21-2.84-9.29-4.3-7.27-3.44-14.56-6.9-21.52-10.93-3.27-1.89-6.46-3.91-9.58-6.02-11.6-7.84,2.37-1.78,2.32,2.09.03-2.49-12.78-11.95-14.84-14.23-8.93-9.92,2.59-2.28,2.03,2.97.08-.74-4.58-7.33-4.6-7.35-6.46-9.86,2.33,4.48,2.17,6.49.16-1.95-2.13-9.71-3.33-11.79l1.74,11.94c.13-8.01-.51-5.4-1.93,7.83.64-1.08,2.03-7.5,2.05-8.09-.4,8.97-6.44,13.91-2.3,6.56,6.93-12.31-10.15,9.93-3.04,3.96,6.97-5.86,7.43-2.55-4.36,2.27,2.17-.89,5.06-3.52,6.93-4.69,2.39-1.5,4.84-2.9,7.31-4.24s19.3-8.23,6.37-3.52c-13.48,4.9,2.4-.85,3.81-1.4,3.34-1.28,6.7-2.53,10.06-3.75,7.56-2.74,15.18-5.31,22.84-7.75,17.03-5.42,34.26-10.16,51.61-14.45,33.08-8.18,66.54-14.7,99.97-21.22,126.27-24.66,258.15-56.52,353.09-149.7,24.57-24.12,45.42-52.54,62.57-82.34,15.87-27.59,29.16-56.61,45.76-83.78,4.36-7.14,9.12-13.97,13.8-20.9,3.52-5.21,9.54-8.29-4.25,5.35,1.68-1.66,3.14-3.82,4.71-5.62,8.07-9.28,17.03-17.44,26.34-25.44,10.36-8.89-13.08,8.84-4.98,3.9,2.6-1.58,5.01-3.56,7.55-5.25,4.09-2.72,8.26-5.31,12.51-7.77,5.32-3.08,10.76-5.96,16.3-8.63,2.14-1.03,4.61-1.92,6.7-3.11-19.37,10.97-10.24,4.2-4.26,1.95,10.92-4.11,22.13-7.46,33.52-10.02,5.35-1.2,10.91-1.79,16.22-3.09-24.47,5.99-6.31.81,1.84.28,11.5-.74,22.84-.23,34.32.35,16.57.83-19.29-3.5-.43-.11,6.41,1.15,12.76,2.61,19.03,4.39,5.12,1.45,10.07,3.28,15.11,4.94,11.14,3.67-8.44-3.59-8.12-3.57,2.35.15,5.82,2.69,7.96,3.76,4.73,2.38,9.35,4.95,13.85,7.75,2.51,1.56,4.9,3.29,7.38,4.88,12.94,8.29-9.15-8.42-3.85-3.09,3.8,3.82,8.15,7.12,11.95,10.97,1.71,1.73,3.38,3.51,5.02,5.31l2.96,3.35c5.03,6.08,3.89,4.48-3.41-4.81,1.9,5.04,6.98,9.84,9.86,14.51,4.21,6.81,7.99,13.87,11.42,21.11,2.58,5.45,4.06,14.61-1.46-3.88.82,2.75,2.13,5.5,3.1,8.22,2.49,6.93,4.68,13.97,6.64,21.07,3.98,14.47,6.67,29.15,9.14,43.94.81,4.86.75,13.92-.83-6.43.23,3.01.72,6.05,1.04,9.06.81,7.58,1.47,15.17,2.02,22.77,1.1,15.16,1.75,30.35,2.22,45.55,2.18,70.83,2.58,141.74,2.65,212.59.14,145.19-2.37,290.37-3.38,435.55-1,143.7-4.24,288.78,8.19,432.07s36.86,283.47,84.9,416.47c40.66,112.59,103.98,220.66,195.15,299.83,50.63,43.97,105.95,77.45,168.56,101.36,64.31,24.56,134.96,34.31,203.54,34.88,71.11.6,142.51-9.36,212.14-23.15,62.53-12.38,124.98-27.67,185.64-47.31,63.34-20.5,126.72-46.49,181.96-84.11,55.53-37.82,101.02-83.9,140.35-138.17,68.31-94.27,106.48-209.51,131.36-322.18,29.38-133.03,44.19-269.37,60.74-404.43,4.39-35.8,8.73-71.6,13.19-107.39,2.11-16.95,4.25-33.89,6.43-50.83,1.21-9.41,2.44-18.82,3.68-28.22.49-3.7,1.3-7.59,1.5-11.28-1.08,19.92-.15,1.19.37-2.62,9.7-70.91,21.29-141.54,31.72-212.34,11.11-75.45,21.34-151.19,26.31-227.33,4.44-67.94,3.26-136.12,8.13-204.04.56-7.84,1.21-15.68,1.95-23.5s.27-18.77,2.9-25.96c-.54,1.47-2.73,18.12-.51,4.46.55-3.43,1.07-6.86,1.64-10.28,1.58-9.4,3.38-18.76,5.43-28.07,3.54-16.1,7.82-32.04,13.01-47.7,2.2-6.63,4.55-13.22,7.07-19.74,2.52-6.5,9.48-14.29-1.09,2.26,2.22-3.48,3.56-7.9,5.35-11.6,5.58-11.58,11.74-22.89,18.46-33.85,3.37-5.5,6.89-10.92,10.53-16.24,2.03-2.96,4.16-5.84,6.2-8.79,7.88-11.43-10.84,12.99-1.29,1.52,8.23-9.88,16.55-19.59,25.64-28.71,4.5-4.51,9.13-8.89,13.88-13.14s25.91-18.69,6.01-5.63c10.48-6.88,20.41-14.3,31.39-20.43,5.4-3.02,10.91-5.84,16.51-8.47,5.32-2.49,14.75-4.54-4.73,1.83,2.57-.84,5.11-1.99,7.66-2.91,11.56-4.17,23.45-7.44,35.53-9.69,8.17-1.52,15.36,1.59-3.64.29,2.5.17,5.84-.56,8.25-.73,6.96-.48,13.93-.54,20.91-.4,39.25.79,76.79-35.06,75-75-1.85-41.31-32.95-74.15-75-75h0Z"/>
  <path class="cls-2" d="M1945.83,1930.07c32.3-22.98,67.17-41.77,103.59-57.34l-17.92,7.56c58.24-24.56,119.44-40.9,181.09-54.32,66.37-14.45,133.43-28.12,200.75-37.31-6.65.89-13.29,1.79-19.94,2.68,52.4-6.96,105.33-9.81,157.92-3.05l-19.94-2.68c31.06,4.25,61.39,12.29,90.36,24.32l-17.92-7.56c23.43,9.96,45.58,22.42,65.89,37.81l-15.18-11.73c16.91,13.09,32.11,27.97,45.2,44.9l-11.73-15.18c11.32,15.03,20.52,31.17,27.87,48.49l-7.56-17.92c11.91,29.15,18.63,59.89,25.45,90.53,7.47,33.59,14.93,67.18,22.21,100.81,14.3,66.05,27.93,132.27,39.6,198.84,6.68,38.08,12.68,76.27,17.86,114.59-.89-6.65-1.79-13.29-2.68-19.94,14.66,109.71,25.54,222.7,11.01,332.99.89-6.65,1.79-13.29,2.68-19.94-8.17,59.47-24.86,117.15-43.73,174-19.11,57.59-39.29,114.84-59.02,172.22-40.45,117.64-80.91,235.28-121.36,352.91-22.88,66.54-45.77,133.09-68.65,199.63-6.09,17.72-1.68,42.01,7.56,57.79,9.1,15.56,26.94,30.39,44.82,34.47,41.71,9.5,78.59-12.62,92.26-52.38,63.54-184.78,127.08-369.55,190.62-554.33,30.72-89.32,65.36-178.4,87.87-270.25,23.92-97.59,26.93-197.39,19.6-297.17-14.39-195.8-56.36-388.4-99.44-579.51-10.28-45.59-23.7-92.28-50.15-131.4-26.49-39.18-60.08-71.12-100.1-96.35-78.3-49.36-173.9-65.72-265.17-61.22-52.84,2.61-105.48,11.04-157.45,20.63-42.69,7.88-85.36,16.11-127.78,25.31-87.1,18.9-173.89,44.32-252.5,87.22-17.87,9.75-35.11,20.55-51.69,32.35s-29,24.96-34.47,44.82c-4.94,17.95-2.71,41.86,7.56,57.79s25.7,30.11,44.82,34.47c18.66,4.25,41.55,3.99,57.79-7.56h0Z"/>
  <path class="cls-2" d="M2525.78,1925.49l-.42-.05,19.94,2.68c-4.86-.67-9.56-2.04-14.09-3.92l17.92,7.56c-9.84-4.16-18.55-10.47-26.97-16.96,5.06,3.91,10.12,7.82,15.18,11.73-5.49-4.24-10.98-8.5-16.25-13.02s-10.5-9.33-14.79-14.8l11.73,15.18c-.43-.58-.79-1.16-1.1-1.81l7.56,17.92c-.15-.39-.25-.75-.32-1.16.89,6.65,1.79,13.29,2.68,19.94-.03-.26-.03-.53,0-.79l-2.68,19.94c.03-.24.09-.47.18-.7l-7.56,17.92c.13-.29.26-.53.45-.79l-11.73,15.18c.2-.24.4-.43.64-.63l-15.18,11.73c.35-.25.7-.45,1.09-.63l-17.92,7.56c1.03-.43,2.11-.65,3.21-.81l-19.94,2.68c20.14-2.6,40.49-2.46,60.61.22l-19.94-2.68c8.4,1.13,16.74,2.63,25.05,4.27s16.65,3.22,24.87,5.26c4.39,1.09,8.72,2.42,12.89,4.17l-17.92-7.56c5.72,2.44,11.09,5.59,16.01,9.39l-15.18-11.73c3.64,2.84,7.32,6.03,10.15,9.69l-11.73-15.18c.24.35.44.68.63,1.05l-7.56-17.92c.11.25.19.5.24.76l-2.68-19.94c.04.37.05.66.01,1.03l2.68-19.94c-.03.2-.09.39-.16.58l7.56-17.92c-.13.29-.26.53-.44.78l11.73-15.18c-.27.33-.56.62-.89.9l15.18-11.73c-.73.55-1.52.97-2.36,1.33l17.92-7.56c-3.75,1.51-7.68,2.66-11.53,3.89s-8.03,2.51-12.07,3.68c-7.99,2.31-16.04,4.44-24.16,6.28-4.63,1.05-9.28,1.96-13.99,2.6l19.94-2.68c-4.93.64-9.89.96-14.86.76-10.33-.39-19.96,1.76-28.9,6.46-9.3,3.02-17.34,8.19-24.14,15.51-7.31,6.79-12.48,14.84-15.51,24.14-4.7,8.94-6.85,18.57-6.46,28.9l2.68,19.94c3.56,12.71,9.99,23.74,19.29,33.1,5.06,3.91,10.12,7.82,15.18,11.73,11.7,6.78,24.32,10.2,37.85,10.24,3.12.12,6.25.06,9.36-.18,9.56-.73,19.07-2.2,28.53-3.71,6.12-.98,12.17-2.39,18.18-3.88,12.09-3,24.05-6.51,35.86-10.49,1.33-.45,2.67-.88,3.98-1.37,6.44-2.4,12.77-5.14,19.01-8.01.57-.26,1.11-.57,1.63-.92,12.56-8.49,20.62-15.22,28.38-28.51.54-.93,7.36-17.03,7.68-18.19.98-3.56.67-4.4,1.5-10.55.03-.24,1.34-7.22,1.38-10.59-.4-3.46-.86-6.92-1.39-10.37-.09-3.53-.57-6.98-1.44-10.36l-.14-.38-7.56-17.92c-.17-.3-.32-.59-.51-.88-3.67-5.73-8.1-11.15-12.64-16.31-.91-1.03-1.87-2.03-2.84-3-1.86-1.85-3.82-3.59-5.87-5.22-5.91-4.7-11.85-9.44-17.98-13.85-1.12-.8-2.26-1.58-3.43-2.32-2.27-1.44-4.62-2.75-7.04-3.93-8.07-3.92-16.38-7.43-24.83-10.48-2.84-1.02-5.75-1.87-8.67-2.61-5.91-1.5-11.92-2.65-17.89-3.88s-12.46-2.52-18.72-3.63c-12.53-2.21-25.19-3.86-37.81-5.37-6.16-.74-12.35-1.23-18.56-1.47-12.58-.48-25.2.09-37.69,1.67-6.73.86-13.71,1.75-20.42,2.74-.33.05-.65.09-.97.15-.44.08-.88.18-1.31.31-13.59,4.16-25.27,10.28-35.35,20.46-2.35,2.37-4.82,6.15-6.27,8.03-1.13,1.46-4.5,5.25-6.19,8.1-7.73,13.03-7.53,16.42-9.2,28.86-.79,5.87-1.33,6.99-1.34,10.76l1.34,9.97c.33,3.47.8,6.93,1.41,10.36,1.85,6.83,4.6,13.58,8.3,19.62.19.31.4.59.61.88l5.86,7.59c2.03,2.65,4.07,5.3,6.13,7.92.42.52.86,1.02,1.29,1.53.99,1.14,2,2.25,3.04,3.34,2.02,2.13,4.13,4.17,6.3,6.15,4.24,3.87,8.7,7.49,13.2,11.04,9.29,7.32,18.56,14.68,28.11,21.66,4.42,3.24,8.98,6.31,13.79,8.95,2.34,1.28,4.74,2.45,7.19,3.49,7.69,3.27,16.51,7.67,25.01,10.04,1.21.34,2.43.63,3.66.88,7.79,1.58,15.96,2.3,23.68,3.29,10.33.39,19.96-1.76,28.9-6.46,9.3-3.02,17.34-8.19,24.14-15.51,7.31-6.79,12.48-14.84,15.51-24.14,4.7-8.94,6.85-18.57,6.46-28.9l-2.68-19.94c-3.56-12.71-9.99-23.74-19.29-33.1l-15.18-11.73c-11.7-6.78-24.32-10.2-37.85-10.24h0Z"/>
  <path class="cls-2" d="M4387.16,1986.18c3.92-2.17,7.95-4.11,12.07-5.86l-17.92,7.56c12.98-5.44,26.73-8.77,40.65-10.64-6.65.89-13.29,1.79-19.94,2.68,20.95-2.77,42.15-2.22,63.19-.93,6,.37,12.05.6,18.03,1.24l-19.94-2.68c.66.09,1.29.23,1.92.46l-17.92-7.56c.29.13.54.27.8.45-5.06-3.91-10.12-7.82-15.18-11.73.16.12.3.26.42.41l-11.73-15.18c.12.15.22.32.3.51l-7.56-17.92c.08.21.14.42.15.64-.89-6.65-1.79-13.29-2.68-19.94v.34c.89-6.65,1.79-13.29,2.68-19.94-.02.22-.07.44-.15.65l7.56-17.92c-.16.33-.32.6-.54.9,3.91-5.06,7.82-10.12,11.73-15.18-.34.38-.7.71-1.1,1.03,5.06-3.91,10.12-7.82,15.18-11.73-1.91,1.39-4.05,2.51-6.09,3.68s-4.27,2.38-6.43,3.52c-4.33,2.26-8.75,4.35-13.25,6.26l17.92-7.56c-12.39,5.23-25.37,9.01-38.71,10.82,6.65-.89,13.29-1.79,19.94-2.68-10.89,1.44-21.93,1.51-32.82.07,6.65.89,13.29,1.79,19.94,2.68-9.54-1.3-18.89-3.75-27.77-7.48,5.97,2.52,11.94,5.04,17.92,7.56-2.82-1.2-5.58-2.52-8.28-3.96-8.61-5.48-17.9-8.45-27.88-8.9-9.97-2.23-19.94-1.79-29.91,1.34-9.76,2.32-18.26,6.8-25.51,13.42-8.16,5.29-14.6,12.3-19.32,21.04-2.52,5.97-5.04,11.94-7.56,17.92-3.57,13.29-3.57,26.58,0,39.88,2.52,5.97,5.04,11.94,7.56,17.92,6.67,11.27,15.64,20.24,26.91,26.91,2.06,1.1,4.15,2.14,6.28,3.09,7.9,3.55,15.86,7.02,23.98,10.05,4.3,1.6,8.7,2.92,13.17,3.95,2.27.53,4.56.98,6.87,1.37,1.08.18,2.16.34,3.25.49,7.72,1.08,15.45,2.23,23.2,3.08,4.58.5,9.19.73,13.8.71s9.36-.31,14-.85c8.85-1.03,17.72-2.14,26.51-3.61,2.26-.38,4.5-.81,6.74-1.3,9.16-2,18.12-4.9,26.78-8.52,14.71-6.14,29.19-12.02,42.81-20.27.41-.25.83-.49,1.23-.76,2.75-1.86,6.25-4.8,8.05-6.19,1.06-.82,5.58-4.06,8.03-6.23.14-.13.28-.26.41-.39l.24-.28c3.91-5.06,7.82-10.12,11.73-15.18,3.91-5.61,6.74-12.61,8.15-18.97.76-3.42.99-7.06,1.44-10.46,1.77-13.2,1.77-7.08,0-20.28l-1.34-9.97-.06-.35c-.3-1.09-7.01-17.13-7.66-18.21-6.94-11.6-16.41-21.55-28.28-28.21-4.08-2.29-13.07-7.01-19.98-8.09-8.35-1.31-15.42-2.38-23.31-2.93-2.57-.18-5.13-.36-7.7-.53-20.81-1.4-41.75-2.4-62.56-.39-2.39.23-4.77.5-7.14.81-8.87,1.15-17.78,2.2-26.61,3.67-4.72.79-9.42,1.76-14.06,2.94s-9.06,2.52-13.49,4.1c-2.25.8-4.47,1.67-6.67,2.58-7.96,3.32-16.04,6.48-23.83,10.21-2.15,1.03-4.27,2.13-6.36,3.29-8.74,4.71-15.75,11.15-21.04,19.32-6.63,7.24-11.1,15.75-13.42,25.51-3.13,9.97-3.57,19.94-1.34,29.91.45,9.98,3.42,19.28,8.9,27.88l11.73,15.18c9.36,9.3,20.39,15.72,33.1,19.29l19.94,2.68c13.54-.04,26.16-3.46,37.85-10.24h0Z"/>
  <path class="cls-2" d="M4806.54,3616.17c241.99-257.4,379.85-590.04,510.08-913.14,136.88-339.59,254.86-688.64,322.72-1049.09,17.78-94.45,32-189.61,42.8-285.11,10.48-92.66,19.25-186.68,8.02-279.7-10.79-89.36-37.9-173.65-83-251.8-40.43-70.06-93.17-133.86-151.19-190.03-114.75-111.07-252.66-200.59-395.57-270.99-144.76-71.32-298.41-124.9-456.47-157.58-316.34-65.41-649.85-54.47-958.8,42.08-37.4,11.69-74.37,24.7-110.9,38.88-18.77,7.28-34.31,16.5-44.82,34.47-9.41,16.08-13.39,39.77-7.56,57.79,11.47,35.46,53.1,67.58,92.26,52.38,71.45-27.73,144.64-50.79,219.12-68.89,38.03-9.24,76.36-17.22,114.91-23.94,18.44-3.21,36.93-6.14,55.46-8.78,2.65-.38,7.23-1.61,10.11-1.41l-9.82,1.33c3.38-.44,6.75-.87,10.13-1.3,10.13-1.27,20.28-2.45,30.43-3.55,77.03-8.33,154.59-11.77,232.05-10.4,38.33.68,76.64,2.53,114.85,5.55,18.69,1.48,37.35,3.23,55.98,5.27,8.47.93,16.93,1.91,25.39,2.95,4.47.55,11.04.3,15.21,1.93-11.49-1.56-13.07-1.77-4.74-.62,2.53.35,5.06.71,7.59,1.08,151.7,21.8,300.78,62.12,442.51,120.49,3.92,1.62,7.94,3.11,11.78,4.9-18.96-8.83-2.91-1.18.86.46,7.81,3.38,15.59,6.82,23.34,10.32,18.61,8.39,37.09,17.09,55.4,26.12,35.11,17.3,69.65,35.76,103.52,55.36,32.42,18.77,64.24,38.59,95.37,59.44,15.42,10.33,30.68,20.91,45.74,31.77,6.79,4.9,13.53,9.85,20.24,14.87,3.91,2.92,8.53,5.73,12.04,9.12-15.26-14.71.98.83,4.7,3.8,59.02,47.01,114.25,99.29,161.44,158.29,2.07,2.58,4.03,5.31,6.18,7.82-13.36-15.64-2.25-2.79.3.66,4.91,6.65,9.72,13.37,14.4,20.18,11.2,16.27,21.73,32.99,31.47,50.17,8.89,15.68,17.13,31.74,24.61,48.15l2.02,4.48c3.25,7.44,2.67,5.98-1.73-4.37,1.07.71,3.51,8.65,3.7,9.11,4.23,10.69,8.13,21.51,11.68,32.45,5.43,16.7,10.03,33.66,13.78,50.81,2.39,10.95,4.22,21.98,6.16,33.01,3.56,20.2-1.37-16.18.57,4.23.58,6.07,1.3,12.13,1.82,18.2,4.03,46.79,3.18,93.88.12,140.7-2.89,44.28-7.53,88.46-12.74,132.52-1.4,11.85-2.87,23.69-4.39,35.52-.5,3.9-.8,7.98-1.54,11.83,3.74-19.4-.05.23-.53,3.7-3.28,23.61-6.8,47.2-10.55,70.74-56.42,354.2-163.92,698.24-292.76,1032.28-32.29,83.71-65.96,166.89-100.6,249.65-1.89,4.52-3.79,9.04-5.69,13.56-1.73,4.13-6.83,16.38.08-.15-4.25,10.18-8.6,20.31-12.93,30.45-7.96,18.62-15.99,37.21-24.11,55.75-17.02,38.83-34.47,77.46-52.57,115.8-35.33,74.81-73.15,148.5-115.05,219.87-20.38,34.71-41.71,68.86-64.17,102.27-11.21,16.67-22.7,33.15-34.48,49.42-6.43,8.87-12.94,17.68-19.54,26.41-.83,1.1-6.73,8.61-6.63,8.72,6.16-7.95,6.71-8.68,1.66-2.19-2.25,2.87-4.51,5.74-6.79,8.6-25.06,31.51-51.41,61.95-78.99,91.28-26.89,28.6-30.48,78.09,0,106.07,29.18,26.79,77.36,30.53,106.07,0h0Z"/>
  <path class="cls-2" d="M2376.93,467.31c-100.2-60.97-213.32-97.75-327.33-122.77-114.14-25.05-230.39-43.1-346.13-59.02-242.04-33.29-491.36-48.48-729.57,17.8-111.59,31.05-225.92,79.81-308.95,163.02-21.41,21.46-39.9,45.54-58.32,69.55-7.97,10.39-15.82,20.86-23.72,31.31-1.13,1.49-14.41,18.72-4.19,5.64-5.37,6.88-10.83,13.69-16.41,20.4-38.09,45.76-74.72,92.56-106.55,142.96-116.64,184.68-172.26,400.71-181.69,617.61-10.69,245.91,3.94,495.62,43.84,738.45,39.1,237.99,113.62,468.43,176.57,700.77,62.23,229.65,141.33,454.1,234.31,673.07,45.2,106.44,94.02,211.34,146.37,314.45,50.72,99.9,102.82,200.54,163.75,294.68,56.83,87.82,127.59,173.67,222.74,221.56,60.66,30.53,127.48,46.9,195.14,33.51,63.73-12.62,110.42-57.74,154.86-101.79,169.82-168.36,331.02-345.43,482.75-530.25,36.79-44.81,72.99-90.09,108.68-135.78,12.79-16.37,21.97-31.33,21.97-53.03,0-18.4-8.17-40.37-21.97-53.03-26.93-24.72-80.27-33.02-106.07,0-142.75,182.76-294.36,358.54-454.43,526.35-40.01,41.95-80.55,83.4-121.59,124.34-19.34,19.3-38.81,38.36-58.83,56.95-10.11,9.39-2.18,2.23.33.33-5.05,3.82-10.32,7.41-15.75,10.66-2.31,1.38-20.78,9.81-4.99,3.69-8.09,3.13-16.39,5.09-24.85,6.91,17.34-3.74-2.17-.21-5.73-.14-6.54.14-12.98-.35-19.51-.66,17.54.83-2.84-.55-6.04-1.23-5.39-1.14-10.72-2.51-16.02-4.02s-10.45-3.48-15.73-5.03c-19.92-5.87,11.45,6.22-5.83-2.16-12.43-6.03-24.63-12.27-36.42-19.5-10.01-6.14-19.6-12.85-29.07-19.79,14.9,10.93-8.36-7.29-12.06-10.57-19.21-17.06-36.92-35.77-53.43-55.44-3.85-4.59-7.58-9.27-11.36-13.92-12.69-15.62,8.79,12.51-2.92-3.91-5.85-8.2-11.84-16.28-17.56-24.57-14.9-21.61-28.88-43.83-42.36-66.35-27.6-46.14-53.56-93.31-79.09-140.63-53.8-99.69-104.27-201.17-151.28-304.24-10.77-23.62-21.37-47.32-31.78-71.1-5.68-12.97-11.3-25.97-16.87-38.98-2.79-6.51-5.56-13.02-8.31-19.54,5.62,13.32-3.68-8.86-4.76-11.47-21.28-51.21-41.73-102.77-61.33-154.65-40.03-105.97-76.51-213.28-109.34-321.69-33.15-109.46-61.24-220.35-92.42-330.38-31.97-112.79-64.73-225.46-91.03-339.75-13.23-57.47-24.55-115.36-34.11-173.55-4.42-26.9-8.49-53.87-12.14-80.89,2.12,15.67-1.06-8.52-1.18-9.45-.93-7.34-1.83-14.69-2.7-22.04-2.04-17.13-3.94-34.27-5.7-51.43-12.09-117.78-17.65-236.16-18.69-354.53-.51-57.94-.59-116.03,1.68-173.94.9-23.06,2.34-46.09,4.34-69.08,1.09-12.51,2.34-25,3.77-37.47.71-6.23,1.5-12.45,2.27-18.67-2.43,19.49,1.16-7.61,1.69-11.07,7.41-48.42,17.58-96.42,30.75-143.61,6.46-23.13,13.63-46.05,21.54-68.72,4.14-11.87,8.49-23.66,13.03-35.38,2.28-5.87,4.65-11.71,6.99-17.56,7.83-19.53-6.29,13.91,2.26-5.35,20.8-46.83,44.27-92.29,71.37-135.8,13.87-22.26,28.58-44.01,44.07-65.17,3.93-5.36,7.91-10.68,11.93-15.98-9.82,12.93,3.74-4.65,4.76-5.92,8.42-10.5,17.17-20.7,25.78-31.04,19.45-23.37,37.55-47.85,55.88-72.1,1.14-1.51,14.44-18.7,4.17-5.6,3.36-4.28,6.73-8.54,10.16-12.76,8.89-10.94,18.09-21.64,27.88-31.79,9.12-9.46,18.93-17.94,28.72-26.66,16.08-14.31-11.75,7.93,5.71-4.62,5.38-3.87,10.73-7.76,16.22-11.48,21.96-14.91,45.07-28.08,68.88-39.78,5.97-2.94,11.99-5.78,18.04-8.53,1.72-.78,22.03-9.37,6.53-3.01,12.33-5.06,24.78-9.81,37.34-14.27,26.18-9.28,52.79-17.37,79.65-24.46s55.34-13.44,83.34-18.61c11.64-2.15,23.32-4.12,35.02-5.92,1.52-.23,24.77-3.56,8.19-1.33,9.39-1.26,18.8-2.36,28.21-3.38,113.96-12.41,229.09-10.08,343.15-.19,117.92,10.23,208.28,24.72,330.14,45.34,107.18,18.14,214.89,37.92,317.42,74.95,10.58,3.82,21.03,7.97,31.52,12.02,20.71,8.01-13.27-6.28,6.93,2.9,6.14,2.79,12.3,5.5,18.4,8.37,24.48,11.51,48.23,24.38,71.34,38.44,33.55,20.42,83.92,8.47,102.61-26.91s8.91-80.82-26.91-102.61h0Z"/>
</svg>