<?xml version="1.0" encoding="UTF-8"?>
<svg id="Cargo" xmlns="http://www.w3.org/2000/svg" viewBox="0 0 6096.47 6096.47">
  <defs>
    <style>
      .cls-1 {
        fill: #caa377;
      }

      .cls-1, .cls-2, .cls-3, .cls-4, .cls-5, .cls-6, .cls-7, .cls-8, .cls-9, .cls-10, .cls-11 {
        stroke-width: 0px;
      }

      .cls-2 {
        fill: #ce942a;
      }

      .cls-3 {
        fill: #eab039;
      }

      .cls-4 {
        fill: #e8b34c;
      }

      .cls-12 {
        opacity: .5;
      }

      .cls-5 {
        fill: #ae8a5f;
      }

      .cls-13 {
        fill: none;
      }

      .cls-13, .cls-14 {
        stroke: #010101;
        stroke-width: 25px;
      }

      .cls-6 {
        fill: #927452;
      }

      .cls-7 {
        fill: #80623f;
      }

      .cls-8 {
        fill: #9d774e;
      }

      .cls-14 {
        fill: #010101;
        stroke-linejoin: round;
      }

      .cls-9 {
        fill: #dea32b;
      }

      .cls-10 {
        fill: #e5b24d;
      }

      .cls-11 {
        fill: #5b3c1a;
      }
    </style>
  </defs>
  <polygon class="cls-7" points="2639 5310.55 3035.37 5491.87 3035.37 5868.57 2639 5666.17 2639 5310.55"/>
  <polygon class="cls-7" points="1573.3 4784.81 1969.68 4966.13 1969.68 5342.83 1573.3 5140.42 1573.3 4784.81"/>
  <polygon class="cls-7" points="563.76 4317.27 960.13 4498.59 960.13 4875.29 563.76 4672.89 563.76 4317.27"/>
  <polygon class="cls-1" points="3337.11 5358.34 3035.37 5491.87 3035.37 5868.57 3337.11 5716.3 3337.11 5358.34"/>
  <polygon class="cls-1" points="4499.6 4832.6 4197.87 4966.13 4197.87 5342.83 4499.6 5190.55 4499.6 4832.6"/>
  <polygon class="cls-1" points="5579.57 4322.37 5277.84 4455.9 5277.84 4832.6 5579.57 4680.32 5579.57 4322.37"/>
  <polygon class="cls-8" points="1969.68 5342.83 2325.65 5118.48 1969.68 4966.13 1969.68 5342.83"/>
  <polygon class="cls-8" points="960.13 4875.29 1316.1 4650.95 960.13 4498.59 960.13 4875.29"/>
  <polygon class="cls-6" points="3036.35 5514.36 386.8 4254.49 386.8 4185.61 637 4089.09 626.37 4236.22 3036.35 5358.34 3036.35 5514.36"/>
  <polygon class="cls-11" points="4197.87 5342.83 3951.02 5087.71 4197.87 4966.13 4197.87 5342.83"/>
  <polygon class="cls-11" points="5277.84 4832.6 5030.99 4577.48 5277.84 4455.9 5277.84 4832.6"/>
  <polygon class="cls-5" points="3035.37 5514.36 5642.32 4300.81 5642.32 4241.36 5472.71 4175.77 5445.54 4197.32 5455.54 4233.55 3035.37 5358.34 3035.37 5514.36"/>
  <polygon class="cls-2" points="1821.75 1624.91 3036.35 2139.53 3036.35 5358.34 542.82 4197.32 542.82 2746.74 1821.91 3249.95 1821.91 1650.38 1821.75 1624.91 1821.75 1624.91"/>
  <polygon class="cls-3" points="3036.35 2139.53 5503.64 1183.72 5503.64 4223.56 3036.35 5358.34 3036.35 2139.53"/>
  <polygon class="cls-4" points="542.82 2746.74 1821.91 2231.36 1821.91 3249.95 542.82 2746.74"/>
  <polygon class="cls-10" points="1821.75 1624.91 3036.35 1161.23 1821.91 700.2 3036.35 205.43 5503.64 1183.72 3036.35 2139.53 1821.75 1624.91"/>
  <polygon class="cls-9" points="1821.75 1624.91 1821.91 700.2 3036.35 1161.23 1821.75 1624.91"/>
  <g>
    <g id="logo" class="cls-12">
      <path id="r" class="cls-14" d="M3622.15,2605.76l45.65-18.49,45.4-18.39c27.82-11.27,41.96-.3,42.24,16.32.27,16.63-13.36,38.98-41.25,50.39l-45.51,18.62-45.76,18.72-.38-33.62-.38-33.54ZM3401.98,3014.07l145.03-61.47,142.58-60.43-.65-46.84-.64-46.68-31.76,13.28-31.88,13.33-.39-34.01-.39-33.92,35.33-14.63,35.18-14.57c38.53-15.96,47.9,20.36,55.53,57.48,7.65,37.2,13.57,75.23,45.04,61.89l86.8-36.79,85.9-36.41-1.92-79.12-1.9-78.65-20.42,8.46-20.47,8.48.19,8.28.19,8.29c.75,33.21-14.34,54.21-30.63,62.07-16.32,7.88-33.81,2.55-37.68-16.89-3.87-19.42-12.86-34.59-21.74-44.55-8.89-9.97-17.68-14.73-21.13-13.31,51-54.4,60.26-108.11,46.58-144.04-13.65-35.87-50.26-54.26-91.53-37.76l-163.66,65.41-166.9,66.7.21,46.45.21,46.61,35.91-14.55,35.76-14.49.79,110.24.8,111.15-54.14,22.64-54.48,22.79.15,47.69.15,47.86Z"/>
      <g id="gear">
        <path class="cls-13" d="M3678.57,2346.09c81.9-32.03,156.13-21.73,210.35,20.56,54.13,42.23,88.77,116.71,91.19,214.03,2.44,98.04-28.24,201.37-80.3,289.55-52.66,89.18-127.25,162.98-211.34,199.51-84.94,36.9-162.9,28.57-219.84-15.01-57.04-43.65-92.47-122.28-92.7-224.87-.22-101.82,34.31-207.27,89.8-295.09,54.86-86.82,130.14-156.33,212.85-188.67Z"/>
        <g id="cogs">
          <polygon id="cog" class="cls-14" points="4001.04 2596.97 4017.62 2577.66 4034.15 2558.4 4016.97 2553.05 3999.78 2547.69 4000.41 2572.31 4001.04 2596.97"/>
          <polygon id="cog-2" data-name="cog" class="cls-14" points="3992.96 2674.72 4011.37 2658.8 4029.73 2642.93 4014.7 2632.86 3999.66 2622.79 3996.31 2648.73 3992.96 2674.72"/>
          <polygon id="cog-3" data-name="cog" class="cls-14" points="3973.04 2754.12 3992.62 2742.23 4012.14 2730.38 3999.85 2715.9 3987.55 2701.41 3980.31 2727.73 3973.04 2754.12"/>
          <polygon id="cog-4" data-name="cog" class="cls-14" points="3941.91 2832.23 3961.92 2824.89 3981.88 2817.57 3972.83 2799.13 3963.77 2780.7 3952.86 2806.43 3941.91 2832.23"/>
          <polygon id="cog-5" data-name="cog" class="cls-14" points="3900.58 2906.08 3920.26 2903.65 3939.9 2901.22 3934.48 2879.45 3929.07 2857.71 3914.85 2881.86 3900.58 2906.08"/>
          <polygon id="cog-6" data-name="cog" class="cls-14" points="3850.49 2972.81 3869.07 2975.46 3887.62 2978.12 3886.11 2953.78 3884.61 2929.48 3867.58 2951.11 3850.49 2972.81"/>
          <polygon id="cog-7" data-name="cog" class="cls-14" points="3793.46 3029.72 3810.18 3037.45 3826.89 3045.17 3829.43 3019.15 3831.96 2993.19 3812.74 3011.42 3793.46 3029.72"/>
          <polygon id="cog-8" data-name="cog" class="cls-14" points="3731.64 3074.44 3745.8 3087.02 3759.96 3099.61 3766.52 3072.89 3773.07 3046.24 3752.38 3060.32 3731.64 3074.44"/>
          <polygon id="cog-9" data-name="cog" class="cls-14" points="3667.42 3105.03 3678.41 3122.05 3689.41 3139.07 3699.8 3112.7 3710.16 3086.39 3688.82 3095.7 3667.42 3105.03"/>
          <polygon id="cog-10" data-name="cog" class="cls-14" points="3603.36 3120.09 3610.69 3140.93 3618.02 3161.78 3631.89 3136.79 3645.71 3111.88 3624.56 3115.98 3603.36 3120.09"/>
          <polygon id="cog-11" data-name="cog" class="cls-14" points="3542.07 3118.87 3545.38 3142.72 3548.7 3166.6 3565.52 3144.03 3582.29 3121.52 3562.19 3120.19 3542.07 3118.87"/>
          <polygon id="cog-12" data-name="cog" class="cls-14" points="3486.07 3101.28 3485.19 3127.2 3484.32 3153.18 3503.44 3133.94 3522.5 3114.76 3504.3 3108.02 3486.07 3101.28"/>
          <polygon id="cog-13" data-name="cog" class="cls-14" points="3437.7 3067.96 3432.64 3094.92 3427.57 3121.94 3448.23 3106.83 3468.83 3091.76 3453.27 3079.86 3437.7 3067.96"/>
          <polygon id="cog-14" data-name="cog" class="cls-14" points="3398.97 3020.25 3389.91 3047.14 3380.83 3074.11 3402.19 3063.75 3423.49 3053.42 3411.23 3036.83 3398.97 3020.25"/>
          <polygon id="cog-15" data-name="cog" class="cls-14" points="3371.47 2960.12 3358.78 2985.86 3346.06 3011.67 3367.25 3006.47 3388.39 3001.28 3379.93 2980.69 3371.47 2960.12"/>
          <polygon id="cog-16" data-name="cog" class="cls-14" points="3356.3 2890.07 3340.51 2913.62 3324.67 2937.24 3344.83 2937.38 3364.95 2937.51 3360.62 2913.77 3356.3 2890.07"/>
          <polygon id="cog-17" data-name="cog" class="cls-14" points="3354.01 2813.04 3335.77 2833.47 3317.46 2853.96 3335.78 2859.37 3354.08 2864.77 3354.05 2838.88 3354.01 2813.04"/>
          <polygon id="cog-18" data-name="cog" class="cls-14" points="3364.59 2732.19 3344.63 2748.72 3324.62 2765.31 3340.39 2775.7 3356.15 2786.08 3360.38 2759.1 3364.59 2732.19"/>
          <polygon id="cog-19" data-name="cog" class="cls-14" points="3387.47 2650.81 3366.62 2662.85 3345.71 2674.92 3358.33 2689.81 3370.96 2704.69 3379.23 2677.71 3387.47 2650.81"/>
          <polygon id="cog-20" data-name="cog" class="cls-14" points="3421.61 2572.14 3400.68 2579.28 3379.69 2586.44 3388.73 2605.15 3397.78 2623.87 3409.71 2597.97 3421.61 2572.14"/>
          <polygon id="cog-21" data-name="cog" class="cls-14" points="3465.52 2499.22 3445.31 2501.28 3425.06 2503.34 3430.22 2525.06 3435.39 2546.81 3450.48 2522.98 3465.52 2499.22"/>
          <polygon id="cog-22" data-name="cog" class="cls-14" points="3517.38 2434.8 3498.64 2431.77 3479.88 2428.74 3481.04 2452.58 3482.19 2476.46 3499.81 2455.6 3517.38 2434.8"/>
          <polygon id="cog-23" data-name="cog" class="cls-14" points="3575.08 2381.2 3558.5 2373.3 3541.9 2365.4 3539.08 2390.39 3536.26 2415.45 3555.7 2398.3 3575.08 2381.2"/>
          <polygon id="cog-24" data-name="cog" class="cls-14" points="3636.39 2340.31 3622.54 2327.91 3608.69 2315.5 3602.07 2340.69 3595.43 2365.94 3615.94 2353.11 3636.39 2340.31"/>
          <polygon id="cog-25" data-name="cog" class="cls-14" points="3698.99 2313.46 3688.33 2297.09 3677.68 2280.73 3667.57 2305.16 3657.44 2329.65 3678.24 2321.54 3698.99 2313.46"/>
          <polygon id="cog-26" data-name="cog" class="cls-14" points="3760.56 2301.5 3753.44 2281.82 3746.33 2262.16 3733.15 2284.92 3719.94 2307.75 3740.27 2304.62 3760.56 2301.5"/>
          <polygon id="cog-27" data-name="cog" class="cls-14" points="3818.88 2304.7 3815.51 2282.47 3812.15 2260.27 3796.43 2280.54 3780.66 2300.88 3799.79 2302.79 3818.88 2304.7"/>
          <polygon id="cog-28" data-name="cog" class="cls-14" points="3871.87 2322.86 3872.34 2298.9 3872.8 2274.99 3855.13 2292.05 3837.41 2309.17 3854.65 2316.02 3871.87 2322.86"/>
          <polygon id="cog-29" data-name="cog" class="cls-14" points="3917.66 2355.24 3921.92 2330.43 3926.16 2305.68 3907.2 2318.93 3888.18 2332.22 3902.92 2343.73 3917.66 2355.24"/>
          <polygon id="cog-30" data-name="cog" class="cls-14" points="3954.63 2400.64 3962.51 2375.89 3970.36 2351.21 3950.79 2360.16 3931.16 2369.14 3942.89 2384.89 3954.63 2400.64"/>
          <polygon id="cog-31" data-name="cog" class="cls-14" points="3981.45 2457.46 3992.66 2433.66 4003.84 2409.94 3984.36 2414.26 3964.85 2418.59 3973.14 2438.02 3981.45 2457.46"/>
          <polygon id="cog-32" data-name="cog" class="cls-14" points="3997.13 2523.68 4011.28 2501.72 4025.38 2479.81 4006.71 2479.31 3988.01 2478.81 3992.57 2501.23 3997.13 2523.68"/>
        </g>
        <g id="mounts">
          <polygon id="mount" class="cls-14" points="3630.01 2373.34 3654.75 2392.57 3679.47 2411.78 3703.34 2373.46 3727.08 2335.34 3678.68 2354.28 3630.01 2373.34"/>
          <polygon id="mount-2" data-name="mount" class="cls-14" points="3940.88 2434.31 3926.48 2476.46 3912.03 2518.82 3942.44 2525.04 3972.78 2531.25 3956.81 2482.72 3940.88 2434.31"/>
          <polygon id="mount-3" data-name="mount" class="cls-14" points="3899.32 2865.83 3865.34 2873.76 3831.23 2881.71 3826.62 2925.51 3821.99 2969.47 3860.8 2917.46 3899.32 2865.83"/>
          <polygon id="mount-4" data-name="mount" class="cls-14" points="3551.6 3086.24 3545.64 3046.14 3539.71 3006.14 3504.43 3027.94 3469 3049.84 3510.34 3068.06 3551.6 3086.24"/>
          <polygon id="mount-5" data-name="mount" class="cls-14" points="3382.29 2772.9 3414.19 2740.62 3445.93 2708.51 3429.58 2677.6 3413.25 2646.72 3397.82 2709.62 3382.29 2772.9"/>
        </g>
      </g>
    </g>
    <g id="logo-2" data-name="logo" class="cls-12">
      <path id="r-2" data-name="r" class="cls-14" d="M4865.84,3670.26l45.65-18.49,45.4-18.39c27.82-11.27,41.96-.3,42.24,16.32.27,16.63-13.36,38.98-41.25,50.39l-45.51,18.62-45.76,18.72-.38-33.62-.38-33.54ZM4645.68,4078.57l145.03-61.47,142.58-60.43-.65-46.84-.64-46.68-31.76,13.28-31.88,13.33-.39-34.01-.39-33.92,35.33-14.63,35.18-14.57c38.53-15.96,47.9,20.36,55.53,57.48,7.65,37.2,13.57,75.23,45.04,61.89l86.8-36.79,85.9-36.41-1.92-79.12-1.9-78.65-20.42,8.46-20.47,8.48.19,8.28.19,8.29c.75,33.21-14.34,54.21-30.63,62.07s-33.81,2.55-37.68-16.89c-3.87-19.42-12.86-34.59-21.74-44.55-8.89-9.97-17.68-14.73-21.13-13.31,51-54.4,60.26-108.11,46.58-144.04-13.65-35.87-50.26-54.26-91.53-37.76l-163.66,65.41-166.9,66.7.21,46.45.21,46.61,35.91-14.55,35.76-14.49.79,110.24.8,111.15-54.14,22.64-54.48,22.79.15,47.69.15,47.86Z"/>
      <g id="gear-2" data-name="gear">
        <path class="cls-13" d="M4922.27,3410.6c81.9-32.03,156.13-21.73,210.35,20.56,54.13,42.23,88.77,116.71,91.19,214.03,2.44,98.04-28.24,201.37-80.3,289.55-52.66,89.18-127.25,162.98-211.34,199.51-84.94,36.9-162.9,28.57-219.84-15.01-57.04-43.65-92.47-122.28-92.7-224.87-.22-101.82,34.31-207.27,89.8-295.09,54.86-86.82,130.14-156.33,212.85-188.67Z"/>
        <g id="cogs-2" data-name="cogs">
          <polygon id="cog-33" data-name="cog" class="cls-14" points="5244.74 3661.48 5261.31 3642.16 5277.84 3622.9 5260.67 3617.55 5243.48 3612.2 5244.11 3636.81 5244.74 3661.48"/>
          <polygon id="cog-34" data-name="cog" class="cls-14" points="5236.65 3739.23 5255.06 3723.31 5273.42 3707.43 5258.39 3697.36 5243.36 3687.29 5240.01 3713.23 5236.65 3739.23"/>
          <polygon id="cog-35" data-name="cog" class="cls-14" points="5216.74 3818.62 5236.31 3806.74 5255.84 3794.88 5243.54 3780.4 5231.25 3765.92 5224 3792.23 5216.74 3818.62"/>
          <polygon id="cog-36" data-name="cog" class="cls-14" points="5185.6 3896.73 5205.61 3889.39 5225.58 3882.07 5216.52 3863.63 5207.47 3845.21 5196.55 3870.93 5185.6 3896.73"/>
          <polygon id="cog-37" data-name="cog" class="cls-14" points="5144.27 3970.59 5163.95 3968.16 5183.6 3965.73 5178.18 3943.96 5172.76 3922.21 5158.54 3946.36 5144.27 3970.59"/>
          <polygon id="cog-38" data-name="cog" class="cls-14" points="5094.18 4037.31 5112.76 4039.97 5131.31 4042.62 5129.81 4018.28 5128.3 3993.98 5111.27 4015.61 5094.18 4037.31"/>
          <polygon id="cog-39" data-name="cog" class="cls-14" points="5037.15 4094.22 5053.88 4101.95 5070.58 4109.67 5073.12 4083.66 5075.66 4057.69 5056.44 4075.93 5037.15 4094.22"/>
          <polygon id="cog-40" data-name="cog" class="cls-14" points="4975.33 4138.94 4989.5 4151.53 5003.66 4164.11 5010.22 4137.39 5016.76 4110.74 4996.08 4124.82 4975.33 4138.94"/>
          <polygon id="cog-41" data-name="cog" class="cls-14" points="4911.11 4169.53 4922.11 4186.55 4933.1 4203.58 4943.49 4177.2 4953.86 4150.9 4932.51 4160.2 4911.11 4169.53"/>
          <polygon id="cog-42" data-name="cog" class="cls-14" points="4847.05 4184.6 4854.38 4205.43 4861.72 4226.29 4875.58 4201.3 4889.4 4176.39 4868.25 4180.49 4847.05 4184.6"/>
          <polygon id="cog-43" data-name="cog" class="cls-14" points="4785.76 4183.37 4789.08 4207.22 4792.4 4231.11 4809.22 4208.53 4825.98 4186.02 4805.89 4184.7 4785.76 4183.37"/>
          <polygon id="cog-44" data-name="cog" class="cls-14" points="4729.76 4165.78 4728.89 4191.71 4728.01 4217.68 4747.13 4198.44 4766.2 4179.26 4747.99 4172.53 4729.76 4165.78"/>
          <polygon id="cog-45" data-name="cog" class="cls-14" points="4681.39 4132.46 4676.33 4159.42 4671.26 4186.44 4691.92 4171.33 4712.52 4156.27 4696.96 4144.37 4681.39 4132.46"/>
          <polygon id="cog-46" data-name="cog" class="cls-14" points="4642.66 4084.75 4633.61 4111.65 4624.53 4138.61 4645.88 4128.26 4667.19 4117.92 4654.92 4101.34 4642.66 4084.75"/>
          <polygon id="cog-47" data-name="cog" class="cls-14" points="4615.17 4024.62 4602.48 4050.36 4589.75 4076.18 4610.94 4070.97 4632.09 4065.78 4623.62 4045.19 4615.17 4024.62"/>
          <polygon id="cog-48" data-name="cog" class="cls-14" points="4600 3954.58 4584.2 3978.13 4568.36 4001.75 4588.52 4001.88 4608.64 4002.01 4604.32 3978.28 4600 3954.58"/>
          <polygon id="cog-49" data-name="cog" class="cls-14" points="4597.71 3877.54 4579.46 3897.97 4561.16 3918.47 4579.48 3923.87 4597.78 3929.27 4597.74 3903.38 4597.71 3877.54"/>
          <polygon id="cog-50" data-name="cog" class="cls-14" points="4608.28 3796.69 4588.33 3813.23 4568.32 3829.81 4584.09 3840.2 4599.85 3850.59 4604.07 3823.61 4608.28 3796.69"/>
          <polygon id="cog-51" data-name="cog" class="cls-14" points="4631.17 3715.31 4610.31 3727.35 4589.4 3739.43 4602.03 3754.31 4614.65 3769.19 4622.92 3742.22 4631.17 3715.31"/>
          <polygon id="cog-52" data-name="cog" class="cls-14" points="4665.31 3636.65 4644.37 3643.79 4623.39 3650.95 4632.43 3669.65 4641.47 3688.37 4653.41 3662.47 4665.31 3636.65"/>
          <polygon id="cog-53" data-name="cog" class="cls-14" points="4709.22 3563.73 4689.01 3565.78 4668.76 3567.84 4673.92 3589.56 4679.08 3611.31 4694.18 3587.48 4709.22 3563.73"/>
          <polygon id="cog-54" data-name="cog" class="cls-14" points="4761.07 3499.31 4742.34 3496.28 4723.57 3493.25 4724.73 3517.09 4725.89 3540.97 4743.51 3520.1 4761.07 3499.31"/>
          <polygon id="cog-55" data-name="cog" class="cls-14" points="4818.78 3445.71 4802.19 3437.81 4785.6 3429.9 4782.78 3454.9 4779.95 3479.95 4799.39 3462.8 4818.78 3445.71"/>
          <polygon id="cog-56" data-name="cog" class="cls-14" points="4880.09 3404.81 4866.24 3392.41 4852.38 3380.01 4845.76 3405.2 4839.13 3430.45 4859.63 3417.61 4880.09 3404.81"/>
          <polygon id="cog-57" data-name="cog" class="cls-14" points="4942.68 3377.97 4932.03 3361.6 4921.37 3345.24 4911.27 3369.66 4901.13 3394.15 4921.93 3386.05 4942.68 3377.97"/>
          <polygon id="cog-58" data-name="cog" class="cls-14" points="5004.25 3366 4997.13 3346.32 4990.02 3326.66 4976.85 3349.42 4963.64 3372.25 4983.97 3369.12 5004.25 3366"/>
          <polygon id="cog-59" data-name="cog" class="cls-14" points="5062.57 3369.21 5059.2 3346.97 5055.84 3324.77 5040.12 3345.05 5024.36 3365.39 5043.48 3367.3 5062.57 3369.21"/>
          <polygon id="cog-60" data-name="cog" class="cls-14" points="5115.57 3387.36 5116.03 3363.4 5116.5 3339.49 5098.83 3356.56 5081.11 3373.68 5098.34 3380.52 5115.57 3387.36"/>
          <polygon id="cog-61" data-name="cog" class="cls-14" points="5161.36 3419.74 5165.61 3394.93 5169.86 3370.19 5150.89 3383.44 5131.87 3396.73 5146.62 3408.24 5161.36 3419.74"/>
          <polygon id="cog-62" data-name="cog" class="cls-14" points="5198.32 3465.15 5206.2 3440.4 5214.06 3415.71 5194.48 3424.67 5174.86 3433.64 5186.59 3449.39 5198.32 3465.15"/>
          <polygon id="cog-63" data-name="cog" class="cls-14" points="5225.14 3521.96 5236.35 3498.17 5247.53 3474.44 5228.06 3478.76 5208.54 3483.09 5216.84 3502.52 5225.14 3521.96"/>
          <polygon id="cog-64" data-name="cog" class="cls-14" points="5240.82 3588.19 5254.97 3566.22 5269.07 3544.32 5250.4 3543.82 5231.71 3543.32 5236.26 3565.74 5240.82 3588.19"/>
        </g>
        <g id="mounts-2" data-name="mounts">
          <polygon id="mount-6" data-name="mount" class="cls-14" points="4873.7 3437.85 4898.44 3457.07 4923.16 3476.28 4947.03 3437.96 4970.77 3399.84 4922.38 3418.79 4873.7 3437.85"/>
          <polygon id="mount-7" data-name="mount" class="cls-14" points="5184.57 3498.81 5170.18 3540.97 5155.72 3583.32 5186.13 3589.55 5216.47 3595.76 5200.5 3547.23 5184.57 3498.81"/>
          <polygon id="mount-8" data-name="mount" class="cls-14" points="5143.01 3930.33 5109.03 3938.26 5074.93 3946.22 5070.31 3990.01 5065.69 4033.98 5104.49 3981.96 5143.01 3930.33"/>
          <polygon id="mount-9" data-name="mount" class="cls-14" points="4795.29 4150.75 4789.34 4110.64 4783.4 4070.64 4748.13 4092.44 4712.69 4114.34 4754.04 4132.56 4795.29 4150.75"/>
          <polygon id="mount-10" data-name="mount" class="cls-14" points="4625.98 3837.4 4657.89 3805.12 4689.62 3773.01 4673.27 3742.1 4656.94 3711.22 4641.51 3774.12 4625.98 3837.4"/>
        </g>
      </g>
    </g>
    <g id="logo-3" data-name="logo" class="cls-12">
      <path id="r-3" data-name="r" class="cls-14" d="M2312.86,4189.61l44.19,15.19,44.79,15.39c27.87,9.58,41.8,31.64,41.71,48.86-.09,17.21-14.17,29.46-41.99,19.61l-44.71-15.83-44.12-15.62.07-33.78.07-33.83ZM2110.83,4421.74l128.49,50.25,133.78,52.31.16-46.32.16-46.42-30.65-11.56-30.37-11.45.07-33.53.07-33.59,33.81,12.4,34.16,12.53c37.99,13.94,46.49,57.66,53.26,100.75,6.76,43.1,11.79,85.52,43.33,97.85l89.2,34.88,91.59,35.82.87-83.29.87-83.62-22.3-8.18-22.16-8.13-.08,8.77-.08,8.76c-.33,35.01-16.97,44.09-34.3,38.65-17.25-5.41-35.2-25.21-38.64-48.21-3.44-23-12.28-45.81-21.14-63.16-8.85-17.32-17.72-29.19-21.28-30.48,54.13-15.46,65.44-64.1,52.16-112.6-13.25-48.41-50.8-95.96-93.49-110.02l-162.16-53.43-154.51-50.91.09,45.56.09,45.46,32.19,11.06,32.52,11.18.06,108.08.05,107.52-48.41-18.25-47.69-17.98.13,44.69.13,44.59Z"/>
      <g id="gear-3" data-name="gear">
        <path class="cls-13" d="M2371.61,3964.82c83.13,25.5,159.89,91.62,216.14,178.45,57.01,88,92.08,195.94,90.93,301.37-1.14,104.89-37.92,185.41-95.52,230.39-56.47,44.1-132.43,53.61-214.06,19.58-79.67-33.22-150.17-101.93-200.39-185.8-49.6-82.83-80.14-181.62-80.46-278.1-.32-96.93,29.89-174.91,79.75-223.07,50.8-49.08,122.52-67.69,203.61-42.82Z"/>
        <g id="cogs-3" data-name="cogs">
          <polygon id="cog-65" data-name="cog" class="cls-14" points="2700.96 4479.45 2720.04 4473.03 2739.24 4466.58 2720.36 4446.32 2701.57 4426.15 2701.27 4452.82 2700.96 4479.45"/>
          <polygon id="cog-66" data-name="cog" class="cls-14" points="2689.01 4554.23 2709.78 4553.33 2730.69 4552.43 2714.51 4528.92 2698.4 4505.5 2693.7 4529.9 2689.01 4554.23"/>
          <polygon id="cog-67" data-name="cog" class="cls-14" points="2664.43 4619.52 2686 4624.11 2707.71 4628.73 2694.88 4603.04 2682.09 4577.42 2673.24 4598.51 2664.43 4619.52"/>
          <polygon id="cog-68" data-name="cog" class="cls-14" points="2628.46 4672.65 2649.93 4682.44 2671.53 4692.29 2662.52 4665.56 2653.51 4638.88 2640.96 4655.8 2628.46 4672.65"/>
          <polygon id="cog-69" data-name="cog" class="cls-14" points="2582.85 4711.62 2603.35 4726.09 2623.98 4740.64 2619.03 4714.03 2614.08 4687.43 2598.42 4699.56 2582.85 4711.62"/>
          <polygon id="cog-70" data-name="cog" class="cls-14" points="2529.7 4735.16 2548.46 4753.6 2567.32 4772.14 2566.5 4746.74 2565.69 4721.31 2547.64 4728.26 2529.7 4735.16"/>
          <polygon id="cog-71" data-name="cog" class="cls-14" points="2471.35 4742.72 2487.7 4764.29 2504.11 4785.96 2507.31 4762.75 2510.52 4739.5 2490.87 4741.11 2471.35 4742.72"/>
          <polygon id="cog-72" data-name="cog" class="cls-14" points="2410.22 4734.44 2423.62 4758.22 2437.07 4782.08 2444 4761.91 2450.96 4741.67 2430.53 4738.04 2410.22 4734.44"/>
          <polygon id="cog-73" data-name="cog" class="cls-14" points="2348.72 4711.07 2358.79 4736.11 2368.88 4761.2 2379.14 4744.74 2389.44 4728.2 2369.02 4719.61 2348.72 4711.07"/>
          <polygon id="cog-74" data-name="cog" class="cls-14" points="2289.14 4673.89 2295.62 4699.24 2302.11 4724.62 2315.19 4712.35 2328.34 4700.02 2308.68 4686.91 2289.14 4673.89"/>
          <polygon id="cog-75" data-name="cog" class="cls-14" points="2233.57 4624.6 2236.36 4649.35 2239.15 4674.11 2254.48 4666.35 2269.88 4658.55 2251.68 4641.53 2233.57 4624.6"/>
          <polygon id="cog-76" data-name="cog" class="cls-14" points="2183.88 4565.21 2182.99 4588.52 2182.11 4611.81 2199.06 4608.72 2216.1 4605.62 2199.95 4585.37 2183.88 4565.21"/>
          <polygon id="cog-77" data-name="cog" class="cls-14" points="2141.66 4497.96 2137.23 4519.08 2132.8 4540.14 2150.73 4541.73 2168.76 4543.33 2155.19 4520.61 2141.66 4497.96"/>
          <polygon id="cog-78" data-name="cog" class="cls-14" points="2108.23 4425.26 2100.47 4443.5 2092.74 4461.67 2111 4467.81 2129.37 4473.98 2118.79 4449.59 2108.23 4425.26"/>
          <polygon id="cog-79" data-name="cog" class="cls-14" points="2084.61 4349.61 2073.84 4364.39 2063.11 4379.11 2081.08 4389.53 2099.14 4400 2091.87 4374.79 2084.61 4349.61"/>
          <polygon id="cog-80" data-name="cog" class="cls-14" points="2071.51 4273.52 2058.13 4284.38 2044.81 4295.19 2061.86 4309.51 2078.99 4323.91 2075.25 4298.72 2071.51 4273.52"/>
          <polygon id="cog-81" data-name="cog" class="cls-14" points="2069.37 4199.52 2053.84 4206.1 2038.39 4212.64 2053.94 4230.41 2069.55 4248.25 2069.46 4223.9 2069.37 4199.52"/>
          <polygon id="cog-82" data-name="cog" class="cls-14" points="2078.3 4130.09 2061.15 4132.14 2044.1 4134.18 2057.6 4154.81 2071.14 4175.52 2074.72 4152.83 2078.3 4130.09"/>
          <polygon id="cog-83" data-name="cog" class="cls-14" points="2098.11 4067.61 2079.93 4065.01 2061.86 4062.43 2072.8 4085.27 2083.77 4108.17 2090.93 4087.92 2098.11 4067.61"/>
          <polygon id="cog-84" data-name="cog" class="cls-14" points="2128.28 4014.31 2109.7 4007.08 2091.23 3999.89 2099.18 4024.19 2107.14 4048.53 2117.69 4031.46 2128.28 4014.31"/>
          <polygon id="cog-85" data-name="cog" class="cls-14" points="2167.94 3972.22 2149.64 3960.51 2131.44 3948.88 2136.03 3973.83 2140.62 3998.79 2154.25 3985.54 2167.94 3972.22"/>
          <polygon id="cog-86" data-name="cog" class="cls-14" points="2215.91 3943.1 2198.58 3927.24 2181.33 3911.45 2182.29 3936.18 2183.24 3960.89 2199.53 3952.02 2215.91 3943.1"/>
          <polygon id="cog-87" data-name="cog" class="cls-14" points="2270.63 3928.34 2254.97 3908.8 2239.37 3889.34 2236.51 3912.93 2233.66 3936.47 2252.09 3932.42 2270.63 3928.34"/>
          <polygon id="cog-88" data-name="cog" class="cls-14" points="2330.22 3928.9 2316.9 3906.32 2303.63 3883.82 2296.93 3905.34 2290.25 3926.79 2310.17 3927.84 2330.22 3928.9"/>
          <polygon id="cog-89" data-name="cog" class="cls-14" points="2392.52 3945.2 2382.17 3920.38 2371.84 3895.62 2361.4 3914.16 2351.01 3932.63 2371.7 3938.9 2392.52 3945.2"/>
          <polygon id="cog-90" data-name="cog" class="cls-14" points="2455.11 3977.03 2448.27 3950.91 2441.43 3924.82 2427.52 3939.55 2413.68 3954.21 2434.33 3965.59 2455.11 3977.03"/>
          <polygon id="cog-91" data-name="cog" class="cls-14" points="2515.44 4023.51 2512.51 3997.14 2509.59 3970.78 2492.65 3980.97 2475.8 3991.1 2495.56 4007.26 2515.44 4023.51"/>
          <polygon id="cog-92" data-name="cog" class="cls-14" points="2570.92 4083.05 2572.17 4057.56 2573.43 4032.03 2554.05 4037.12 2534.78 4042.19 2552.81 4062.57 2570.92 4083.05"/>
          <polygon id="cog-93" data-name="cog" class="cls-14" points="2619.09 4153.39 2624.58 4129.9 2630.08 4106.34 2609.01 4105.99 2588.07 4105.66 2603.55 4129.48 2619.09 4153.39"/>
          <polygon id="cog-94" data-name="cog" class="cls-14" points="2657.71 4231.67 2667.31 4211.23 2676.94 4190.72 2655.03 4184.85 2633.26 4179.02 2645.47 4205.31 2657.71 4231.67"/>
          <polygon id="cog-95" data-name="cog" class="cls-14" points="2684.99 4314.54 2698.33 4298.1 2711.75 4281.58 2689.93 4270.37 2668.24 4259.23 2676.61 4286.87 2684.99 4314.54"/>
          <polygon id="cog-96" data-name="cog" class="cls-14" points="2699.62 4398.37 2716.19 4386.68 2732.84 4374.93 2712.05 4358.84 2691.37 4342.84 2695.5 4370.6 2699.62 4398.37"/>
        </g>
        <g id="mounts-3" data-name="mounts">
          <polygon id="mount-11" data-name="mount" class="cls-14" points="2323.54 3958.66 2347.39 3996.12 2371.37 4033.8 2395.74 4011.23 2420.32 3988.47 2371.58 3973.45 2323.54 3958.66"/>
          <polygon id="mount-12" data-name="mount" class="cls-14" points="2641.46 4256.82 2624.38 4290.24 2607.42 4323.44 2639.87 4354.69 2672.59 4386.21 2657.01 4321.45 2641.46 4256.82"/>
          <polygon id="mount-13" data-name="mount" class="cls-14" points="2582.8 4670.19 2547.57 4649.41 2512.69 4628.84 2506.9 4668.41 2501.14 4707.83 2541.69 4689.14 2582.8 4670.19"/>
          <polygon id="mount-14" data-name="mount" class="cls-14" points="2242.4 4601.55 2237.35 4559.34 2232.29 4517.13 2200.52 4510.8 2169.06 4504.54 2205.55 4552.81 2242.4 4601.55"/>
          <polygon id="mount-15" data-name="mount" class="cls-14" points="2093.69 4181.15 2121.55 4172.59 2149.68 4163.95 2135.22 4122.58 2120.79 4081.32 2107.19 4131.41 2093.69 4181.15"/>
        </g>
      </g>
    </g>
  </g>
</svg>