<?xml version="1.0" encoding="UTF-8"?>
<svg id="Gradle" xmlns="http://www.w3.org/2000/svg" viewBox="0 0 5582.01 5705.52">
  <defs>
    <style>
      .cls-1 {
        fill: #57b947;
      }

      .cls-2 {
        fill: #02303d;
      }
    </style>
  </defs>
  <path class="cls-2" d="m5004.46,821.19c-131.25-175-225-206.25-350-262.5s-156.25-50-337.5-56.25-187.5,50-318.75,118.75-75,106.25-75,106.25c0,0,68.75,206.25,125,243.75s218.75-87.5,343.75-93.75,181.25,31.25,268.75,112.5,118.75,125,131.25,287.5-12.5,275-162.5,443.75-256.25,206.25-443.75,237.5-206.25-6.25-368.75-43.75-268.75-187.5-531.25-312.5-537.5-206.25-737.5-218.75-556.25,37.5-670.72,62.5-398.03,118.75-541.78,225-75,206.25-75,206.25c0,0,262.5,525,356.25,655.35s112.5,144.65,225,188.4,243.75-56.25,356.25-125,312.5-262.5,312.5-262.5c0,0-137.5,193.75-256.25,318.75s-262.5,175-443.75,168.75-287.5-193.75-287.5-193.75l-193.75-325-75-162.5s-181.25,43.75-400,250c-218.75,206.25-268.75,362.5-362.5,612.5-93.75,250-125,681.25-118.75,937.5s50,481.25,50,481.25h575s18.75-106.25,87.5-262.5,225-231.25,225-231.25c0,0,168.75-62.5,318.75,100s143.75,393.75,143.75,393.75h437.5s118.75-331.25,218.75-443.75,256.25-181.25,418.75-150,318.75,156.25,437.5,250,312.5,343.75,312.5,343.75h587.5l-31.25-106.25c-31.25-106.25-12.5-231.25,0-443.75s106.25-356.25,175-512.5,250-318.75,393.75-543.75c143.75-225,218.75-387.5,368.75-725,150-337.5,118.75-450,125-693.75s-81.25-400-212.5-575Zm-1032.68,1754.74c-231.32,296.85-729.74,49.69-587.29-306.35l214.59,76.24c-139.69,76.22-26.4,330.47,138.36,268.23,101.09-38.88,127.36-107.3,114.35-187.76-7.06-12.7,19.76,1.41,19.76,1.41l145.41,59.29s-1.41,55.06-45.18,88.94Z"/>
  <path class="cls-1" d="m4506.84,1229.11s-31.06-88.94-90.35-120c-59.29-31.06-173.65-31.06-216,12.71-42.35,43.76-80.47,120-108.71,223.06s-235.76,338.82-235.76,338.82c54.49,17.55,150.7,40.83,270.51,28.87,128.19-12.8,222.79-59.87,273.02-89.57,18.36-17.29,32.28-33.6,42.35-46.59,7.49-9.66,17.83-23.12,28.53-42.35,6.67-11.99,14.48-28.26,22.29-50.83,25.41-73.41,25.41-144,25.41-144l111.53-110.12h-122.82Zm-135.18,32.47c-30.71,3.18-60.35,12.71-60.35,12.71,21.28-62.76,98.26-44.65,120.71,0,0,0-29.65-15.88-60.35-12.71Z"/>
</svg>