<?xml version="1.0" encoding="UTF-8"?>
<svg id="Layer_1" data-name="Layer 1" xmlns="http://www.w3.org/2000/svg" viewBox="0 0 5027.58 5705.52">
  <defs>
    <style>
      .cls-1 {
        fill: #fff;
      }

      .cls-2 {
        fill: #679ad1;
      }
    </style>
  </defs>
  <path class="cls-2" d="m0,1587.71v2530.1c0,115.27,61.5,221.79,161.33,279.43l2191.13,1265.05c99.83,57.64,222.83,57.64,322.66,0l2191.13-1265.05c99.83-57.64,161.33-164.16,161.33-279.43V1587.71c0-115.27-61.5-221.79-161.33-279.43L2675.12,43.23c-99.83-57.64-222.83-57.64-322.66,0L161.33,1308.28C61.5,1365.92,0,1472.44,0,1587.71Z"/>
  <path class="cls-1" d="m3418.89,3375.32c-178.45,308.41-510.18,517.66-892.33,522.33-577.07,7.05-1050.6-455.05-1057.65-1032.13s455.05-1050.6,1032.13-1057.65c391.28-4.78,734.94,206.13,917.87,522.32l603.4-348.38c-301.15-520.49-863.94-870.66-1508.52-870.66-961.86,0-1741.61,779.74-1741.61,1741.61s779.74,1741.61,1741.61,1741.61c644.58,0,1207.37-350.17,1508.52-870.66l-603.43-348.39Z"/>
  <polygon class="cls-1" points="4022.31 2711.85 3738.85 2711.85 3738.85 2428.39 3455.38 2428.39 3455.38 2711.85 3171.92 2711.85 3171.92 2995.32 3455.38 2995.32 3455.38 3278.78 3738.85 3278.78 3738.85 2995.32 4022.31 2995.32 4022.31 2711.85"/>
  <polygon class="cls-1" points="4943.57 2711.85 4660.11 2711.85 4660.11 2428.39 4376.64 2428.39 4376.64 2711.85 4093.18 2711.85 4093.18 2995.32 4376.64 2995.32 4376.64 3278.78 4660.11 3278.78 4660.11 2995.32 4943.57 2995.32 4943.57 2711.85"/>
</svg>