<?xml version="1.0" encoding="UTF-8"?>
<svg id="Java" xmlns="http://www.w3.org/2000/svg" viewBox="0 0 5033.78 5705.52">
  <defs>
    <style>
      .cls-1 {
        fill: #ededee;
      }

      .cls-2 {
        fill: #5382a1;
      }

      .cls-3 {
        fill: #e67025;
      }
    </style>
  </defs>
  <circle class="cls-1" cx="2513.79" cy="2852.76" r="2511.53"/>
  <path class="cls-2" d="m2052.81,3053.09l-179.58,50.82s-247.34,71.15-203.29,118.59,243.95,60.99,243.95,60.99c0,0,355.76,6.78,525.18,0,169.41-6.78,569.22-40.66,674.26-57.6s203.29-33.88,203.29-33.88l-159.25,94.49s-260.89,57.98-379.48,68.14c-118.59,10.16-355.76,33.88-569.22,30.49s-454.02-6.78-589.55-33.88-243.95-50.82-220.24-105.04c23.72-54.21,257.51-138.92,335.44-155.86,77.93-16.94,318.49-37.27,318.49-37.27Z"/>
  <path class="cls-2" d="m1897.54,3486.78s-94.83,77.93-30.48,105.04c64.35,27.11,77.89,77.93,562.19,64.38,484.3-13.55,609.61-64.38,609.61-64.38l142.24,94.87s-196.43,71.15-399.63,91.48c-203.2,20.33-409.79,27.11-562.19,20.33-152.4-6.78-335.28-6.78-430.11-71.15-32.46-22.03-81.28-56.01-81.28-105.04,0-74.54,189.66-135.53,189.66-135.53Z"/>
  <path class="cls-2" d="m3411.49,3076.8s101.65-77.93,206.68-71.15c105.04,6.78,240.56,47.44,277.84,142.31s84.71,243.95-88.09,372.71-179.58,155.86-372.71,223.62c-193.13,67.76-98.26,20.33-98.26,20.33,0,0,162.64-108.42,223.62-152.47s199.91-135.53,223.62-304.94c23.72-169.41-111.81-227.01-186.35-240.56-74.54-13.55-186.35,10.16-186.35,10.16Z"/>
  <path class="cls-2" d="m1991.82,3903.53s-54.21,47.44-37.27,74.54,98.26,74.54,362.54,81.32,592.94-77.93,592.94-77.93l199.91,105.04s-348.99,176.19-708.14,142.31-609.88-84.71-579.39-216.85c30.49-132.14,169.41-108.42,169.41-108.42Z"/>
  <path class="cls-2" d="m1686.88,4211.86s-348.99,50.82-352.38,132.14c-3.39,81.32,393.04,138.92,508.24,142.31,115.2,3.39,789.46,16.94,992.75,0,203.29-16.94,650.54-45.87,806.4-133.05,155.86-87.18,60.99-120.12,60.99-120.12,0,0,128.35,34.51,28.6,120.12-99.75,85.62-435.18,187.27-655.42,207.59s-864,40.66-1091.01,33.88c-227.01-6.78-671.25-50.82-796.24-98.26-124.99-47.44-115.2-42.72-101.65-92.51,13.55-49.79,169.41-136.01,294.78-170.83,125.36-34.82,304.94-21.27,304.94-21.27Z"/>
  <path class="cls-2" d="m1612.34,4682.83s677.65,60.99,1006.31,44.05c328.66-16.94,769.13-64.38,941.93-115.2,172.8-50.82,331.89-142.31,370.93-176.19,39.05-33.88,8.55,57.6-86.32,125.36-94.87,67.76-409.98,199.91-786.07,210.07-376.09,10.16-911.44,30.49-1087.62,0-176.19-30.49-359.15-88.09-359.15-88.09Z"/>
  <path class="cls-3" d="m2655.01,3156.93c23.89-71.26,80.85-197.38,60.33-269.1-.28-1.04-1-2.85-1.37-3.93-.76-2.44-2-4.79-3-7.07-2.08-3.83-4.47-7.63-7.48-10.74-.94-1.22-2.91-2.78-4.05-3.86-1.02-.86-2.18-1.51-3.16-2.33-.91-.53-2.71-1.37-3.68-1.85,0,0-.57-.12-.57-.12,0,0-1.07-.22-1.07-.22-3.71-.96-7.42.55-11.01,1.31,0,0-.83.18-.83.18,0,0-.38.09-.38.09-.13.02-.33.02-.49.04l-1.85.12c-.15,0-.26.03-.43.02,0,0-.55-.06-.55-.06-2.27-.2-4.76-.86-6.9-1.81-1.38-.55-3.07-1.34-4.37-2.04-6.89-3.55-13.64-8.14-20.05-12.49-6.11-4.08-13.08-9.32-19.01-13.67-7.48-5.72-15.46-11.8-22.57-17.98-29.64-25.77-52.44-52.35-74.85-89.61-42.51-71.99-55.61-153.04-50.35-235.55,4.03-58.06,15.36-114.85,31.15-169.43,3.81-12.74,8.01-25.29,12.61-37.67,51.02-136.01,137.61-247.55,241.56-345.25,62.76-58.19,132.92-105.48,209.58-142.28,82.88-39.37,172.15-65.85,262.83-78.93,41.86-6.08,83.81-9.31,125.39-9.61l.44,2.97c-99.82,29.62-193.78,75.49-277.45,136.94-4.41,3.37-10.36,7.77-14.7,11.07-8.58,6.93-17.29,13.6-25.56,20.8-6.1,5.07-15.83,13.62-21.86,19.16-2.79,2.41-7.98,7.28-10.59,9.84-47.71,45.02-89.75,97.64-122.42,153.88-6.53,11.51-14.68,25.8-20.96,37.45-43.74,82.26-85.25,177.29-83.69,271.51.3,14.23,1.77,28.3,5.97,41.64,3.76,12.26,9.8,24.27,17.35,34.44,8.61,11.63,19.11,21.48,30.56,29.69,9.24,6.78,19.16,12.41,27.47,20.34,10.15,9.03,24.3,28.52,33.85,42.38,20.62,30.14,42.93,60.13,61.54,91.6,24.41,40.91,43.36,85.64,51.37,132.84,15.33,84.17-6.83,175.25-56.22,242.54-32.36,44.63-75.76,80.62-124.28,106.43-45.88,24.46-95.89,40.44-147.07,47.89-9.08,1.26-18.11,2.28-27.37,2.83,0,0-1.82-2.38-1.82-2.38h0Z"/>
  <path class="cls-3" d="m2513.31,3029.77c-180.94-70.63-362.05-219.43-454.59-392.89-24.3-45.62-43.39-94.4-55.5-144.7-11.95-50.21-17.09-102.54-14.23-154.13,8.33-156.81,83.21-290.19,185.87-400.28,46.61-51.92,101.16-99.33,160.17-137.19,47.17-30.79,101.97-57.25,150.16-83.01,68.75-36.23,128.86-81.62,184.29-135.78,7.03-6.77,14.58-14.35,21.01-20.71,76.1-74.99,148.55-156.62,187.56-256.25,10-25.15,18.06-51.35,24.15-77.72,19.66-84.06,19.81-172.06,8.23-257.79-2.16-16.94-4.91-33.51-7.63-50.61,0,0,.92-.4.92-.4,33.95,44.6,59.53,95.17,77.34,148.68,42.26,126.63,33.45,267.71-20.9,390.21-37.48,86.67-96.08,162.1-155.69,234.35-41.61,50.69-87.12,98.96-137,142.14-58.45,51.82-122.83,94.87-176.72,149.27-35.91,36.23-65.28,76.77-93.8,119.3-30.84,45.22-64.65,92.7-91.89,139-33.48,56.46-56.99,109.83-61.63,175.66-3.39,47.34,2.82,95.14,14.42,141.07,30.97,119.8,94.76,232.25,162.59,336.75,29.76,45.48,61.01,89.86,93.48,134.23,0,0-.6.8-.6.8h0Z"/>
</svg>