<?xml version="1.0" encoding="UTF-8"?>
<svg id="Javascript" xmlns="http://www.w3.org/2000/svg" viewBox="0 0 5046.96 5705.52">
  <defs>
    <style>
      .cls-1 {
        fill: #323330;
      }

      .cls-2 {
        fill: #f0dc4e;
      }
    </style>
  </defs>
  <rect class="cls-2" x="1.29" y="329.93" width="5045.67" height="5045.67" rx="72.91" ry="72.91"/>
  <g>
    <path class="cls-1" d="m4827.4,4051.12c-256.66-264.31-1194.15-399.91-694.63-768.72,745.46-221.36,782.2,552.2,753.9-345.16-978.85-422.86-2173.29,561.21-887.29,1228.3,325.54,157.26,463.55,159.74,444.78,406.51-116.94,319.23-819.29,114.72-974.16-48.71,38.73,400.66-201.64,575.42,478.58,616.2,778.34,124.23,1323.65-483.3,878.83-1088.42Z"/>
    <path class="cls-1" d="m2670.25,3850.56c-4.75,83.64,14.76,605.68-21.18,703.06-45.08,186.57-406.73,150.42-463.75-16.97,0,.03-50.83-84.68-50.83-84.68,0,0-368.47,222.35-368.47,222.35,96.12,386.32,835.25,553.8,1119.55,289.38,426.25-292.88,169.53-1704.08,235.82-2110.96-.07.02-453.25.02-453.25.02,0,0,2.12,997.79,2.12,997.79Z"/>
  </g>
</svg>