<?xml version="1.0" encoding="UTF-8"?>
<svg id="Python" xmlns="http://www.w3.org/2000/svg" viewBox="0 0 5046.96 5705.52">
  <defs>
    <style>
      .cls-1 {
        fill: #4887b9;
      }

      .cls-2 {
        fill: #fde774;
      }
    </style>
  </defs>
  <path class="cls-1" d="m2891.58,315.24h-882.19c-417.41,0-755.78,338.37-755.78,755.78v355.8h1221.93v175.76H797.76c-401.42,18.01-721.34,349.13-721.34,755v882.19c0,417.41,338.37,755.78,755.78,755.78h451.05v-441.09c0-417.41,338.38-755.78,755.78-755.78h852.56c417.4-.01,755.76-338.38,755.76-755.78v-971.88c0-417.41-338.38-755.78-755.78-755.78Zm-1101.63,879.7c-135.96,0-246.18-110.22-246.18-246.18s110.22-246.18,246.18-246.18,246.18,110.22,246.18,246.18-110.22,246.18-246.18,246.18Z"/>
  <path class="cls-2" d="m2147.44,5390.28h882.19c417.41,0,755.78-338.37,755.78-755.78v-355.8h-1221.93v-175.76h1677.77c401.42-18.01,721.34-349.13,721.34-755v-882.19c0-417.41-338.37-755.78-755.78-755.78h-451.05v441.09c0,417.41-338.38,755.78-755.78,755.78h-852.56c-417.4.01-755.76,338.38-755.76,755.78v971.88c0,417.41,338.38,755.78,755.78,755.78Zm1101.63-879.7c135.96,0,246.18,110.22,246.18,246.18s-110.22,246.18-246.18,246.18-246.18-110.22-246.18-246.18,110.22-246.18,246.18-246.18Z"/>
</svg>