<?xml version="1.0" encoding="UTF-8"?>
<svg id="Rust" xmlns="http://www.w3.org/2000/svg" viewBox="0 0 5582.01 5705.52">
  <defs>
    <style>
      .cls-1 {
        fill: #fff;
      }

      .cls-2 {
        fill: #e55925;
      }

      .cls-3 {
        fill: #000300;
      }

      .cls-4 {
        fill: #580600;
      }
    </style>
  </defs>
  <path class="cls-4" d="m4605.77,3172.2c-440.24-274.06-1032.8,327.05-1694.12,262.59-8.01-.78-70.99-7.01-136.39-3.11-65.39-3.9-128.38,2.33-136.39,3.11-661.32,64.46-1253.88-536.65-1694.12-262.59-25.83,16.08-201.46,125.41-197.65,268.24,1.79,67.25,42.64,114.75,96,175.06,259.16,292.93,390.29,438.13,412.24,423.53,54.52-36.27-130.43-431.95-135.53-446.12,216.62,54.18,229.31,57.33,229.31,57.33,95.97,23.81,233.74,56.72,411.63,95.14,0,0,312.68,77.13,700.24,76.24,33.46-.08,45.07-1.35,79.06,0,53.85,2.15,156.25,10.59,235.21,10.22,78.96.37,181.36-8.08,235.21-10.22,33.99-1.35,45.6-.08,79.06,0,387.55.9,700.24-76.24,700.24-76.24,177.89-38.42,315.65-71.34,411.63-95.14,0,0,12.7-3.15,229.31-57.33-5.1,14.17-190.05,409.85-135.53,446.12,21.94,14.6,153.07-130.6,412.24-423.53,53.36-60.31,94.21-107.81,96-175.06,3.81-142.82-171.81-252.15-197.65-268.24Z"/>
  <path class="cls-2" d="m5248.89,3200.44c-51.52-147.69-163.76-220.24-163.76-220.24-72-46.53-120.33-39.54-135.53-79.06-32.76-85.14,163.05-191.66,135.53-271.06-28.77-83.01-262.08-22.35-316.24-124.24-52.72-99.17,119.56-248.43,67.76-321.88-51.15-72.53-245.67,35.36-316.24-45.18-74.07-84.54,73.7-279.39,5.65-344.47-66.19-63.3-244.52,84.16-327.53,16.94-87.09-70.52,28.33-298.29-45.18-344.47-71.98-45.21-222.27,148.26-316.24,101.65-95.72-47.48-26.49-291.29-112.94-327.53-84.24-35.31-201.72,174.51-304.94,141.18-103.89-33.54-78.83-276.43-163.76-293.65-86.2-17.47-163.72,222.21-265.41,208.94-1.05-.14-2.08-.31-3.11-.5-34.45-77.62-87.62-169.83-142.52-220.94-14.28-20.54-30.93-35-52.01-38.33-5.64-.89-11.36-.94-17.15-.24-5.79-.7-11.51-.65-17.15.24-21.09,3.33-37.74,17.79-52.01,38.33-54.9,51.11-108.07,143.33-142.52,220.94-1.03.19-2.06.36-3.11.5-101.69,13.27-179.22-226.41-265.41-208.94-84.93,17.22-59.88,260.1-163.76,293.65-103.22,33.33-220.7-176.49-304.94-141.18-86.45,36.24-17.22,280.05-112.94,327.53-93.96,46.61-244.26-146.86-316.24-101.65-73.51,46.18,41.91,273.95-45.18,344.47-83.01,67.21-261.34-80.24-327.53-16.94-68.05,65.08,79.72,259.94,5.65,344.47-70.56,80.53-265.09-27.35-316.24,45.18-51.8,73.45,120.48,222.71,67.76,321.88-54.16,101.88-287.47,41.23-316.24,124.24-27.52,79.4,168.29,185.92,135.53,271.06-15.2,39.52-63.53,32.53-135.53,79.06,0,0-112.25,72.54-163.76,220.24-44.07,126.35,1.1,240.45,79.06,429.18,66.6,161.23,146.95,280.97,304.94,513.88,196.25,289.32,231.47,306.22,248.47,299.29,24.49-9.98,23.4-74.41-5.65-271.06-23.54-159.39-60.38-332.93-101.65-542.12,0,0-7.71-39.09-16.94-203.29-4.16-74.05-3.37-99.46,11.29-107.29,30.95-16.53,71.42,73.07,186.35,107.29,60,17.87,146.82,22.59,146.82,22.59,1.91,16.5,5.24,40,11.29,67.76,7.97,36.53,37.81,159,118.59,265.41,123.12,162.19,270.05,162.55,293.65,293.65,2.61,14.47.24,11.27,5.65,62.12,10.71,100.7,27.56,184.32,33.88,208.94,38.67,150.51,247.51,288.01,440.47,327.53,113.78,23.3,261.12,20.55,271.06-16.94,4.6-17.36-21.59-37.14-45.18-56.47-152.18-124.7-282.07-301.17-259.77-333.18,9.22-13.23,44.97-2.51,73.41,5.65,169.12,48.52,482.59,138.46,547.76,56.47,8.32-10.47,14.35-25.95,11.29-67.76-17.12-234.28-239.99-402.44-254.12-412.24-39.44-27.35-150.69-102.4-312-111.53-81.65-4.62-220.69-12.49-309.18,72-25.22,24.08-34.78,44.63-63.53,50.82-71.45,15.4-147.95-82.27-186.35-131.29-59.76-76.3-112.22-179.91-93.18-194.82,12.67-9.92,52.87,22.61,67.76,33.88,170,128.69,535.31,132.53,978.22,151.78,21.08,8.32,66.04,8.87,171.37,9.16,5.47.02,10.82.03,16.08.05,8.8.36,42.45.39,103.72.27,61.27.13,94.92.09,103.72-.27,5.26-.01,10.61-.03,16.08-.05,105.32-.3,150.29-.84,171.37-9.16,442.91-19.25,808.22-23.09,978.22-151.78,14.89-11.27,55.1-43.8,67.76-33.88,19.04,14.91-33.42,118.53-93.18,194.82-38.4,49.02-114.9,146.69-186.35,131.29-28.75-6.2-38.3-26.74-63.53-50.82-88.49-84.49-227.52-76.62-309.18-72-161.31,9.13-272.56,84.18-312,111.53-14.13,9.8-236.99,177.95-254.12,412.24-3.06,41.82,2.97,57.3,11.29,67.76,65.17,81.99,378.65-7.95,547.76-56.47,28.44-8.16,64.19-18.88,73.41-5.65,22.3,32.01-107.59,208.48-259.76,333.18-23.59,19.33-49.78,39.11-45.18,56.47,9.94,37.49,157.28,40.24,271.06,16.94,192.96-39.52,401.8-177.02,440.47-327.53,6.33-24.62,23.17-108.24,33.88-208.94,5.41-50.85,3.04-47.64,5.65-62.12,23.6-131.1,170.52-131.46,293.65-293.65,80.78-106.41,110.62-228.88,118.59-265.41,6.06-27.77,9.38-51.26,11.29-67.76,0,0,86.82-4.72,146.82-22.59,114.93-34.23,155.41-123.83,186.35-107.29,14.67,7.84,15.46,33.24,11.29,107.29-9.23,164.21-16.94,203.29-16.94,203.29-41.27,209.19-78.11,382.73-101.65,542.12-29.04,196.65-30.13,261.08-5.65,271.06,17,6.93,52.22-9.98,248.47-299.29,157.99-232.91,238.34-352.65,304.94-513.88,77.96-188.72,123.13-302.83,79.06-429.18Z"/>
  <path class="cls-2" d="m3864.73,3649.09s494.75-53.35,921.1-327.24-502.59-39.53-502.59-39.53l-567.53,310.59,149.02,56.18Z"/>
  <path class="cls-2" d="m1740.95,3662.08s-745.71-176.47-960.29-345.88,278.12-50.82,278.12-50.82l649.41,254.12,32.76,142.58Z"/>
  <path class="cls-3" d="m3134.07,2810.79c20.36-30.19,50.21-73.31,107.29-101.65,53.3-26.46,102-25.96,127.06-25.41,32.87.72,147.29,10.12,225.88,98.82,47.65,53.78,55.18,112.94,67.76,211.76,12.64,99.28,20.66,162.29-14.12,228.71-56.67,108.22-180.56,136.8-211.76,144-31.94,7.37-167.22,38.58-271.06-45.18-109.86-88.61-101.97-239.32-98.82-299.29,6.08-116.13,55.69-193.86,67.76-211.76Z"/>
  <path class="cls-1" d="m3227.24,2714.79c-78.55,35.79-81.38,158.83-81.88,180.71-.65,28.13-1.01,60.43,16.94,96,5.4,10.7,44.15,84.53,110.12,84.71,60.61.17,98.1-61.97,110.12-81.88,52.85-87.59,13.28-181.84,11.29-186.35-6.39-14.53-40.77-92.74-110.12-101.65-28.49-3.66-50.87,5.92-56.47,8.47Z"/>
  <path class="cls-3" d="m2105.72,2810.79c20.36-30.19,50.21-73.31,107.29-101.65,53.3-26.46,102-25.96,127.06-25.41,32.87.72,147.29,10.12,225.88,98.82,47.65,53.78,55.18,112.94,67.76,211.76,12.64,99.28,20.66,162.29-14.12,228.71-56.67,108.22-180.56,136.8-211.76,144-31.94,7.37-167.22,38.58-271.06-45.18-109.86-88.61-101.97-239.32-98.82-299.29,6.08-116.13,55.69-193.86,67.76-211.76Z"/>
  <path class="cls-1" d="m2198.9,2714.79c-78.55,35.79-81.38,158.83-81.88,180.71-.65,28.13-1.01,60.43,16.94,96,5.4,10.7,44.15,84.53,110.12,84.71,60.61.17,98.1-61.97,110.12-81.88,52.85-87.59,13.28-181.84,11.29-186.35-6.39-14.53-40.77-92.74-110.12-101.65-28.49-3.66-50.87,5.92-56.47,8.47Z"/>
</svg>