<?xml version="1.0" encoding="UTF-8"?>
<svg id="Typescript" xmlns="http://www.w3.org/2000/svg" viewBox="0 0 5046.96 5705.52">
  <defs>
    <style>
      .cls-1 {
        fill: #fff;
      }

      .cls-2 {
        fill: #3777bc;
      }
    </style>
  </defs>
  <rect class="cls-2" x="1.29" y="329.93" width="5045.67" height="5045.67" rx="72.91" ry="72.91"/>
  <g>
    <path class="cls-1" d="m4478.72,3873.85c-317.54-299.6-738.6-228.89-840.74-601.38,101.32-336.29,700.84-198.04,900.01-46.62-40.79-383.76,185.86-520.83-415.03-548.46-662.46-113.09-1302.28,456.11-893.64,1014.39,3.95,118.85,769.88,433.22,815.31,514.51,290.93,441.84-583.19,399.53-789.9,230.84-141.89-99.51-133.42-91.04-133.42-91.04,0,0-4.24,497.65-4.24,497.65,681.53,371.59,1998.3-62.35,1361.65-969.88Z"/>
    <polygon class="cls-1" points="1162.57 3126.39 1789.01 3126.39 1789.01 4936.34 2299.25 4936.34 2299.25 3126.39 2920.05 3126.39 2920.05 2729.54 1162.57 2729.54 1162.57 3126.39"/>
  </g>
</svg>